<svg xmlns="http://www.w3.org/2000/svg" width="56.125" height="56" viewBox="0 0 56.125 56">
  <defs>
    <style>
      .cls-1 {
        fill: #fff;
        fill-rule: evenodd;
      }
    </style>
  </defs>
  <path id="Фигура_536" data-name="Фигура 536" class="cls-1" d="M626.685,4557.22l-11.36-11.34a1.174,1.174,0,0,0-1.66,1.66l10.517,10.51-12.11,12.1-2.635-2.63,6.75-6.75a1.181,1.181,0,0,0,0-1.67,1.167,1.167,0,0,0-1.657,0h0l-6.762,6.75-2.636-2.64,2.243-2.22a1.179,1.179,0,0,0-1.654-1.68s0,0-.006.01l-2.243,2.24-1.928-1.92a1.175,1.175,0,0,0-1.661,1.66l11.35,11.34a1.177,1.177,0,0,0,1.665,0H612.9l13.784-13.76a1.191,1.191,0,0,0,.337-0.83A1.2,1.2,0,0,0,626.685,4557.22ZM582.25,4543.7a1.163,1.163,0,0,0,1.646.01,0.056,0.056,0,0,0,.014-0.01,1.177,1.177,0,0,0,.006-1.66H583.91l-1.637-1.64,2.242-2.24a1.178,1.178,0,0,0-1.671-1.66l-2.243,2.23-2.455-2.45,6.751-6.74a1.177,1.177,0,0,0,.006-1.66H584.9a1.152,1.152,0,0,0-1.629-.03,0.3,0.3,0,0,1-.031.03l-6.751,6.74-2.734-2.73,12.11-12.09,10.172,10.15a1.174,1.174,0,0,0,1.655.01c0-.01,0-0.01,0-0.01a1.181,1.181,0,0,0,0-1.67l-11-10.98a1.127,1.127,0,0,0-.831-0.34,1.164,1.164,0,0,0-.829.34l-13.784,13.76a1.175,1.175,0,0,0,0,1.66h0Zm-8.131,26.27a0.511,0.511,0,0,1-.481-0.15,0.521,0.521,0,0,1-.169-0.53c0.506-1.29,1.077-2.74,1.66-4.2l3.252,3.23C576.891,4568.91,575.431,4569.46,574.119,4569.97Zm38.669-49.09a3.018,3.018,0,0,1,4.163,0l5.348,5.34a3.459,3.459,0,0,1,1.032,2.49,3.494,3.494,0,0,1-1.032,2.5l-32.266,32.21-3.306-3.3,26.5-26.45a1.162,1.162,0,0,0,0-1.65c0-.01,0-0.01,0-0.01a1.184,1.184,0,0,0-1.671,0l-26.488,26.44-4.958-4.95Zm-32.006,46.51-4.711-4.69c1.122-2.82,2.177-5.48,2.828-7.08l9,8.99C586.289,4565.26,583.619,4566.3,580.782,4567.39Zm43.188-34.53a5.888,5.888,0,0,0,0-8.31l-5.351-5.33a5.426,5.426,0,0,0-7.491,0l-33.519,33.45a1.156,1.156,0,0,0-.317.71c-0.514,1.13-1.849,4.48-6.009,15.03a2.82,2.82,0,0,0,.684,3.07,2.884,2.884,0,0,0,2.031.88,2.634,2.634,0,0,0,1-.2c10.6-4.08,13.985-5.42,15.15-5.93a1.094,1.094,0,0,0,.718-0.33Z" transform="translate(-570.906 -4516.97)"/>
</svg>
