<svg xmlns="http://www.w3.org/2000/svg" width="60" height="69" viewBox="0 0 60 69">
  <defs>
    <style>
      .cls-1 {
        fill: #fff;
        fill-rule: evenodd;
      }
    </style>
  </defs>
  <path id="Фигура_531" data-name="Фигура 531" class="cls-1" d="M189,4323.59c0,24.88-25.767,32.18-26.844,32.47a0.276,0.276,0,0,1-.155.02l-0.127-.01c-1.095-.3-26.865-7.68-26.865-32.48v-18.78a0.564,0.564,0,0,1,.587-0.54,0.094,0.094,0,0,1,.049.01h0.018a14.758,14.758,0,0,0,4.625.65c2.983,0,13.331-.86,21.266-11.92a0.727,0.727,0,0,1,.9,0c7,9.75,15.361,11.8,21.154,11.8a20.651,20.651,0,0,0,4.831-.54,0.555,0.555,0,0,1,.557.53v18.79Zm-1.549-22.1a16.514,16.514,0,0,1-3.842.4c-5.07,0-12.424-1.83-18.676-10.54a3.834,3.834,0,0,0-5.863,0c-7.1,9.89-16.171,10.66-18.785,10.66a11.651,11.651,0,0,1-3.712-.52,3.64,3.64,0,0,0-4.453,2.47,3.4,3.4,0,0,0-.127.85v18.78c0,26.99,27.87,34.97,29.08,35.3a3.223,3.223,0,0,0,.928.11,3.4,3.4,0,0,0,.953-0.11c1.183-.33,29.062-8.23,29.062-35.3v-18.78a3.564,3.564,0,0,0-3.679-3.45,3.8,3.8,0,0,0-.886.13m-30.792,22.64,1.093-10.78h11.019v2.54h-8.7l-0.65,5.9a6.856,6.856,0,0,1,3.59-.94,5.923,5.923,0,0,1,4.667,1.95,7.71,7.71,0,0,1,1.728,5.28,7.429,7.429,0,0,1-1.793,5.27,6.539,6.539,0,0,1-5.016,1.93,6.772,6.772,0,0,1-4.653-1.59,6.37,6.37,0,0,1-2.053-4.4h2.585a4.37,4.37,0,0,0,1.315,2.8,4.065,4.065,0,0,0,2.806.94,3.65,3.65,0,0,0,2.99-1.31,5.463,5.463,0,0,0,1.087-3.61,5.027,5.027,0,0,0-1.176-3.48,3.962,3.962,0,0,0-3.123-1.31,4.517,4.517,0,0,0-2.806.78l-0.724.6Z" transform="translate(-132 -4290)"/>
</svg>
