<svg xmlns="http://www.w3.org/2000/svg" width="66.84" height="37" viewBox="0 0 66.84 37">
  <defs>
    <style>
      .cls-1 {
        fill: #fff;
        fill-rule: evenodd;
      }
    </style>
  </defs>
  <path id="Фигура_534" data-name="Фигура 534" class="cls-1" d="M1031.23,4308.06v11.07h-14.36C1017.32,4315.71,1019.72,4309.18,1031.23,4308.06Zm6.1-.16c11.23,0,14.89,7.4,16.03,11.23h-19.3v-11.22h3.01C1037.23,4307.9,1037.27,4307.9,1037.33,4307.9Zm19.45,11.29-0.48-.04c-0.01-.03-0.01-0.06-0.02-0.09-0.85-3.31-4.66-14.21-19.09-14.02-0.34,0-3.39,0-3.72.01-17,.51-19.21,11.15-19.6,14.4-7.91,2.26-7.7,15.06-7.69,15.6a1.424,1.424,0,0,0,1.4,1.4h1.98a1.435,1.435,0,0,0,.01-2.87h-0.53c0.16-3.04,1.04-10.08,5.59-11.37a5,5,0,0,0,.48-0.21h40.75l0.76,0.04c4.47,0.29,12.67.78,13.51,11.54h-0.95a1.435,1.435,0,0,0-.01,2.87h2.45a1.392,1.392,0,0,0,1.01-.43,1.477,1.477,0,0,0,.4-1.03C1072.78,4320.17,1061.16,4319.45,1056.78,4319.19Zm1.19,19.97a4.146,4.146,0,1,1,4.09-4.15A4.111,4.111,0,0,1,1057.97,4339.16Zm0-11.15a7.011,7.011,0,1,0,6.92,7A6.948,6.948,0,0,0,1057.97,4328.01Zm-36.69,11.15a4.146,4.146,0,1,1,4.09-4.15,4.111,4.111,0,0,1-4.09,4.15h0Zm0-11.15a7.011,7.011,0,1,0,6.91,7A6.941,6.941,0,0,0,1021.28,4328.01Zm25.4,5.57h-13.99a1.435,1.435,0,0,0,0,2.87h13.99a1.435,1.435,0,0,0,.01-2.87h-0.01Zm10.27,0.43a1.487,1.487,0,0,0-.4,1,1.392,1.392,0,0,0,.43,1,1.258,1.258,0,0,0,.99.44,1.313,1.313,0,0,0,1.01-.44,1.414,1.414,0,0,0,.39-1,1.477,1.477,0,0,0-.41-1.03,1.431,1.431,0,0,0-2.01.03m-36.67,0a1.452,1.452,0,0,0-.43,1,1.433,1.433,0,0,0,.43,1,1.258,1.258,0,0,0,.99.44,1.419,1.419,0,0,0,1.4-1.44,1.477,1.477,0,0,0-.39-1,1.437,1.437,0,0,0-2,0" transform="translate(-1006.19 -4305.03)"/>
</svg>
