<svg xmlns="http://www.w3.org/2000/svg" width="53" height="56" viewBox="0 0 53 56">
  <defs>
    <style>
      .cls-1 {
        fill: #fff;
        fill-rule: evenodd;
      }
    </style>
  </defs>
  <path id="Фигура_551" data-name="Фигура 551" class="cls-1" d="M454.508,4316.71a8.482,8.482,0,0,0-8.432,8.52v23.13a1.207,1.207,0,0,0,1.2,1.21h14.454a1.207,1.207,0,0,0,1.2-1.21v-23.13a8.478,8.478,0,0,0-8.432-8.52m7.227,35.3H447.281a3.634,3.634,0,0,1-3.611-3.65v-23.13a10.84,10.84,0,1,1,21.679,0v23.13a3.636,3.636,0,0,1-3.614,3.65m15.658,0h-8.432v-2.44h8.432a1.206,1.206,0,0,0,1.2-1.21v-17.04a8.492,8.492,0,0,0-8.432-8.53h-1.2v-2.43h1.2a10.909,10.909,0,0,1,10.841,10.96v17.04a3.636,3.636,0,0,1-3.613,3.65m-37.338,0h-8.431a3.636,3.636,0,0,1-3.614-3.65v-17.04a10.911,10.911,0,0,1,10.841-10.96h1.2v2.43h-1.2a8.494,8.494,0,0,0-8.432,8.53v17.04a1.207,1.207,0,0,0,1.205,1.21h8.431v2.44Zm14.454-53.56a6.085,6.085,0,1,0,6.022,6.08,6.051,6.051,0,0,0-6.022-6.08m0,14.6a8.52,8.52,0,1,1,8.431-8.52,8.474,8.474,0,0,1-8.431,8.52m15.657-7.3a4.87,4.87,0,1,0,4.818,4.87,4.845,4.845,0,0,0-4.818-4.87m0,12.17a7.305,7.305,0,1,1,7.227-7.3,7.266,7.266,0,0,1-7.227,7.3m-31.315-12.17a4.87,4.87,0,1,0,4.818,4.87,4.845,4.845,0,0,0-4.818-4.87m0,12.17a7.305,7.305,0,1,1,7.227-7.3,7.266,7.266,0,0,1-7.227,7.3" transform="translate(-428 -4296)"/>
</svg>
