<svg xmlns="http://www.w3.org/2000/svg" width="58" height="58" viewBox="0 0 58 58">
  <defs>
    <style>
      .cls-1 {
        fill: #fff;
        fill-rule: evenodd;
      }
    </style>
  </defs>
  <path id="Фигура_537" data-name="Фигура 537" class="cls-1" d="M871.493,4556.24a1.214,1.214,0,0,0-1.219,1.22v1.29a1.218,1.218,0,1,0,2.435.02v-1.31a1.213,1.213,0,0,0-1.216-1.22h0Zm1.216-3.91a1.218,1.218,0,0,0-2.435,0v1.22a1.218,1.218,0,0,0,2.435.01v-1.23Zm-1.216,16.4a1.815,1.815,0,1,1,.009,0h-0.009Zm4.246-3.04h-0.2a4.222,4.222,0,0,0-2.831-2.83v-0.21a1.218,1.218,0,0,0-2.435,0v0.21a4.238,4.238,0,1,0,5.266,5.26h0.2a1.214,1.214,0,0,0,1.233-1.21,1.24,1.24,0,0,0-1.233-1.24v0.02Zm5.081,0h-1.266a1.215,1.215,0,0,0,0,2.43h1.266a1.219,1.219,0,0,0,1.243-1.21A1.2,1.2,0,0,0,880.82,4565.69Zm5.024,0h-1.22a1.215,1.215,0,0,0,0,2.43h1.22a1.218,1.218,0,0,0,1.242-1.21A1.2,1.2,0,0,0,885.844,4565.69Zm28.142-32.02a1.218,1.218,0,0,0-2.435,0v1.3a1.218,1.218,0,0,0,2.435.01v-1.31Zm-1.216,3.99a1.214,1.214,0,0,0-1.219,1.21v1.21a1.218,1.218,0,0,0,2.435.01v-1.22a1.211,1.211,0,0,0-1.216-1.21m0-13.96a1.816,1.816,0,1,1-.012,0h0.012Zm-4.248,3.02h0.2a4.185,4.185,0,0,0,2.831,2.84v0.2a1.218,1.218,0,0,0,2.435.01v-0.21a4.234,4.234,0,1,0-5.266-5.26h-0.2a1.21,1.21,0,1,0,0,2.42m-5.2,0h1.3a1.21,1.21,0,1,0,.015-2.42h-1.313a1.21,1.21,0,0,0,0,2.42m-5.105,0h1.219a1.21,1.21,0,1,0,.012-2.42h-1.231a1.21,1.21,0,0,0,0,2.42m-32.81,11.22v-1.5H892.13v1.5a0.949,0.949,0,0,1-.962.94,0.17,0.17,0,0,1-.07-0.01H866.607a1.115,1.115,0,0,1-1.2-.93m1.2-18.51H891.1a1.191,1.191,0,0,1,1.032,1.18v13.4H865.411v-13.4A1.325,1.325,0,0,1,866.607,4519.43Zm10.953,24.3h-3.494a1.21,1.21,0,0,0,0,2.42h9.573a1.2,1.2,0,0,0,1.219-1.2,1.219,1.219,0,0,0-1.207-1.22h-3.667v-2.43H891.1a3.382,3.382,0,0,0,3.456-3.29v-17.4a3.577,3.577,0,0,0-3.456-3.6H866.607a3.711,3.711,0,0,0-3.62,3.6v17.33a3.5,3.5,0,0,0,3.62,3.36H877.56v2.43Zm21.927,16.58c-0.269-.11-0.708-0.28-0.8-0.34a5.652,5.652,0,0,0-1.126-.86,4.754,4.754,0,0,1-.614-0.41,1.687,1.687,0,0,0-1.462-.21c-0.395.17-1.219,0.52-1.521,4.01a1.207,1.207,0,0,0,1.1,1.31h0a1.189,1.189,0,0,0,1.307-1.07,0.1,0.1,0,0,0,0-.03c0.046-.45.117-0.94,0.187-1.36a2.615,2.615,0,0,1,.406.34,4.342,4.342,0,0,0,1.541.84,11,11,0,0,0-1.88,3.98,1.22,1.22,0,0,0,.754,1.54,1.343,1.343,0,0,0,.395.06,1.209,1.209,0,0,0,1.149-.82c0.962-2.81,1.255-3.06,1.775-3.5l0.325-.28a1.605,1.605,0,0,0,.558-1.49C901.4,4561.04,900.425,4560.67,899.487,4560.31Zm4.453-6.55a2.928,2.928,0,0,0-1.021.85c0.117-.53.22-1.01,0.313-1.29,0.141-.01.29-0.04,0.442-0.05a5.054,5.054,0,0,1,.777-0.06,0.81,0.81,0,0,1,.082.34A3.121,3.121,0,0,0,903.94,4553.76Zm11.649,0.42a1.2,1.2,0,0,0-1.138,1.27,2.378,2.378,0,0,1-1.137.95c-1.983,1.07-1.579,2.24-1.009,3.85,0.2,0.71-.974,2.97-1.927,4.3,0-.06-0.011-0.12-0.011-0.17v-0.56a11.85,11.85,0,0,0-.614-4.22,1.163,1.163,0,0,0-.267-0.51l-1.149-1.29a1.325,1.325,0,0,0-.453-0.31c-0.219-.09-2.029-0.81-3.178-1.12a0.73,0.73,0,0,1,.278-0.42,0.327,0.327,0,0,1,.257-0.02,1.475,1.475,0,0,0,1.3-.38,2.5,2.5,0,0,0,.418-2.18,2.8,2.8,0,0,0-.953-2.02,3.329,3.329,0,0,0-2.62-.49c-0.14.01-.278,0.03-0.383,0.03a1.835,1.835,0,0,0-1.821,1.09,1.228,1.228,0,0,0-2.111.02l-0.884,1.54c-0.023.05-.035,0.08-0.058,0.13a1.15,1.15,0,0,1-.172.12,11.238,11.238,0,0,1,.406-1.16,1.219,1.219,0,0,0-.629-1.6,1.241,1.241,0,0,0-1.6.64c-0.626,1.45-1.184,3.39-.243,4.4a1.865,1.865,0,0,0,2.123.37,5.665,5.665,0,0,0,1.4-.7,2.066,2.066,0,0,0,1.948,1.13,1.536,1.536,0,0,0,.894-0.49,2.952,2.952,0,0,0,.024.45,2.005,2.005,0,0,0,1.576,1.82,28.73,28.73,0,0,1,2.854.99l0.766,0.86a8.89,8.89,0,0,1,.465,3.31v0.58c0.023,1.18.242,2.71,1.251,3.25a1.693,1.693,0,0,0,.731.18,1.784,1.784,0,0,0,.953-0.3c1.228-.8,4.559-5.65,3.711-8.07-0.091-.27-0.208-0.6-0.278-0.83,0.047-.03.105-0.05,0.164-0.08,1.658-.91,2.47-1.99,2.4-3.23a1.246,1.246,0,0,0-1.286-1.13m-10.14,18.37a13.135,13.135,0,1,1,13.131-13.14v0.01a13.145,13.145,0,0,1-13.131,13.13m0-28.7a15.57,15.57,0,1,0,15.558,15.59v-0.02a15.578,15.578,0,0,0-15.558-15.57" transform="translate(-863 -4517)"/>
</svg>
