<svg xmlns="http://www.w3.org/2000/svg" width="45" height="56.97" viewBox="0 0 45 56.97">
  <defs>
    <style>
      .cls-1 {
        fill: #fff;
        fill-rule: evenodd;
      }
    </style>
  </defs>
  <path id="Фигура_535" data-name="Фигура 535" class="cls-1" d="M320.643,4555.61v11.19a1.159,1.159,0,1,0,2.317,0v-11.19a1.159,1.159,0,1,0-2.317,0m7.033-8.61a4.182,4.182,0,0,0,0,7.21v12.8c0,2.53-2.637,4.6-5.875,4.6s-5.872-2.07-5.872-4.6v-12.8a4.192,4.192,0,0,0,0-7.21v-3.05h11.747V4547Zm-6.507-27.6h1.265l0.613,1.49-0.7,2.27h-1.1l-0.695-2.27Zm8.145,29.4a1.218,1.218,0,0,0,.677-1.1v-4.93a1.167,1.167,0,0,0-1.146-1.19H322.96v-16.03H323.2a1.153,1.153,0,0,0,1.1-.83l1.08-3.53a1.2,1.2,0,0,0-.037-0.82l-1.08-2.64a1.171,1.171,0,0,0-1.063-.72h-2.8a1.172,1.172,0,0,0-1.064.72l-1.079,2.64a1.228,1.228,0,0,0-.037.82l1.079,3.53a1.157,1.157,0,0,0,1.1.83h0.238v16.03h-5.872a1.164,1.164,0,0,0-1.158,1.17v4.95a1.217,1.217,0,0,0,.677,1.1,1.883,1.883,0,0,1,0,3.63,1.191,1.191,0,0,0-.675,1.08v13.5c0,3.85,3.674,6.97,8.187,6.97s8.189-3.12,8.189-6.97v-13.5a1.188,1.188,0,0,0-.672-1.08,1.881,1.881,0,0,1,0-3.63m-26.51-10.27a1.184,1.184,0,0,0-.542,1.09l1.807,26.38a5.494,5.494,0,1,1-10.988.08l1.809-26.46a1.184,1.184,0,0,0-.542-1.09c-1.656-1.06-7.036-4.87-7.033-9.56a11.349,11.349,0,0,1,3.2-7.92v5.67a1.227,1.227,0,0,0,.2.67l3.328,5.1a1.172,1.172,0,0,0,.96.53h7.15a1.17,1.17,0,0,0,.96-0.54l3.328-5.09a1.244,1.244,0,0,0,.195-0.67v-5.67a11.373,11.373,0,0,1,3.206,7.92c0,4.69-5.385,8.5-7.03,9.56H302.8Zm3.307-20.97a1.117,1.117,0,0,0-1.18-.05,1.182,1.182,0,0,0-.608,1.04v7.8l-2.788,4.28H295.62l-2.785-4.28v-7.8a1.182,1.182,0,0,0-.608-1.04,1.144,1.144,0,0,0-1.183.05A13.739,13.739,0,0,0,285,4528.97c0,5.4,5.181,9.57,7.536,11.18L290.774,4566a7.806,7.806,0,1,0,15.612.09v-0.17l-1.765-25.77c2.365-1.61,7.539-5.78,7.539-11.18a13.729,13.729,0,0,0-6.041-11.41h-0.008Zm-8.018,49.24a0.559,0.559,0,0,1,.159-0.38,0.545,0.545,0,0,1,.413-0.18,0.561,0.561,0,0,1,.574.56C299.239,4567.4,298.093,4567.4,298.093,4566.8Zm0.572-2.95a2.837,2.837,0,0,0-2.032.86,2.9,2.9,0,0,0,.016,4.09,2.865,2.865,0,0,0,4.068-.02,2.891,2.891,0,0,0-2.052-4.93" transform="translate(-285 -4517)"/>
</svg>
