<svg xmlns="http://www.w3.org/2000/svg" width="54" height="53.97" viewBox="0 0 54 53.97">
  <defs>
    <style>
      .cls-1 {
        fill: #fff;
        fill-rule: evenodd;
      }
    </style>
  </defs>
  <path id="Фигура_533" data-name="Фигура 533" class="cls-1" d="M742.6,4303.27a15.615,15.615,0,0,0-16.156,15.07q-0.019.54,0,1.08a1.151,1.151,0,0,0,1.156,1.12,0.036,0.036,0,0,0,.031-0.01,1.133,1.133,0,0,0,1.115-1.17,0.079,0.079,0,0,0,0-.02,13.319,13.319,0,0,1,12.856-13.77q0.462-.015.924,0a1.108,1.108,0,0,0,1.185-1.02c0-.03,0-0.06,0-0.09a1.145,1.145,0,0,0-1.108-1.19h0m28.637,44.96a1.6,1.6,0,0,1-2.251,0H768.98l-13.889-13.89a19.841,19.841,0,0,0,2.258-2.27l13.888,13.89a1.619,1.619,0,0,1,.473,1.14,1.591,1.591,0,0,1-.476,1.13h0Zm-48.927-29.99a18.945,18.945,0,1,1,18.95,18.95,18.949,18.949,0,0,1-18.95-18.95m50.556,26.1-14.092-14.1a21.228,21.228,0,1,0-5.518,5.53l14.092,14.09a3.9,3.9,0,0,0,5.512.01c0-.01,0-0.01.006-0.01a3.9,3.9,0,0,0,.007-5.51c0-.01,0-0.01-0.007-0.01" transform="translate(-720 -4297.03)"/>
</svg>
