<svg xmlns="http://www.w3.org/2000/svg" width="76" height="91" viewBox="0 0 76 91">
  <defs>
    <style>
      .cls-1 {
        fill: #fff;
        fill-rule: evenodd;
      }
    </style>
  </defs>
  <path id="lamp_icon" class="cls-1" d="M834.9,2759.26h-0.378a24.343,24.343,0,0,0-17.789,7.96,21.715,21.715,0,0,0-6.434,16.69A23.594,23.594,0,0,0,819,2800.97a0.76,0.76,0,0,1,.378.76c0.757,3.41,2.271,10.99,6.056,13.65v8.72a7.954,7.954,0,0,0,1.514,4.17l1.514,1.52a8,8,0,0,0,4.163,1.51h4.542a8,8,0,0,0,4.164-1.51l1.514-1.9a5.79,5.79,0,0,0,1.514-3.79v-8.72c4.163-2.66,5.3-10.62,6.055-13.65a0.759,0.759,0,0,1,.379-0.76,23.171,23.171,0,0,0,1.514-34.88,25.619,25.619,0,0,0-17.411-6.83h0Zm5.678,64.84c0,0.38-.379,1.14-0.379,1.52l-1.514,1.51a8.571,8.571,0,0,0-1.514.38h-4.542c-0.378,0-1.135-.38-1.514-0.38l-1.514-1.51a1.841,1.841,0,0,1-.378-1.52v-7.96h11.354v7.96h0Zm7.948-26.16a6.651,6.651,0,0,0-1.893,3.03c-1.892,9.86-4.163,11.37-5.3,11.37H828.465c-1.135,0-3.406-1.51-5.3-11.37a5.17,5.17,0,0,0-1.892-3.03c-4.542-3.8-7.192-8.72-7.192-14.41a19.154,19.154,0,0,1,5.3-14.03c3.785-4.17,9.462-6.45,15.14-6.83,5.677,0,11.354,1.9,15.139,6.07a19.854,19.854,0,0,1,6.056,14.03,19.457,19.457,0,0,1-7.191,15.17h0Zm-30.279-39.44a1.948,1.948,0,1,0,3.406-1.89l-5.677-9.86a2.03,2.03,0,0,0-1.514-1.14,1.388,1.388,0,0,0-1.136.38,2.842,2.842,0,0,0-.757,2.65l5.678,9.86h0Zm-20.439,6.07,9.841,5.69a1.954,1.954,0,0,0,1.893-3.42l-9.841-5.68c-0.379,0-.757-0.38-1.135-0.38a1.586,1.586,0,0,0-1.514,1.14,2.176,2.176,0,0,0,.756,2.65h0Zm37.092-9.1a1.792,1.792,0,0,0,1.893-1.9V2742.2a1.893,1.893,0,1,0-3.785,0v11.37a1.791,1.791,0,0,0,1.892,1.9h0Zm27.251,14.79,9.841-5.69a2.176,2.176,0,0,0,.757-2.65,2.029,2.029,0,0,0-1.514-1.14,1.385,1.385,0,0,0-1.135.38l-9.841,5.68a2.184,2.184,0,0,0-.757,2.66,1.624,1.624,0,0,0,2.649.76h0Zm-13.247-11a1.992,1.992,0,0,0,2.65-.76l5.677-9.86c0.757-.75.379-1.89-0.757-2.65-0.378,0-.757-0.38-1.135-0.38a1.586,1.586,0,0,0-1.514,1.14l-5.678,9.86a2.176,2.176,0,0,0,.757,2.65h0Z" transform="translate(-796.906 -2740.31)"/>
</svg>
