<svg xmlns="http://www.w3.org/2000/svg" width="23" height="22" viewBox="0 0 23 22">
  <defs>
    <style>
      .cls-1 {
        fill: #fff;
        fill-rule: evenodd;
      }
    </style>
  </defs>
  <path id="icon3" class="cls-1" d="M643.987,6122.84a0.474,0.474,0,0,0-.67-0.09l-7.859,5.35a1.715,1.715,0,0,1-1.916,0l-7.859-5.35a0.465,0.465,0,0,0-.671.09,0.474,0.474,0,0,0,.1.67l7.859,5.36a2.688,2.688,0,0,0,3.066,0l7.859-5.36a0.474,0.474,0,0,0,.1-0.67h0Zm-13.129,6.6-5.75,4.78a0.594,0.594,0,0,0-.1.67,0.493,0.493,0,0,0,.384.2,0.342,0.342,0,0,0,.287-0.1l5.75-4.78a0.588,0.588,0,0,0,.1-0.67,0.478,0.478,0,0,0-.671-0.1h0Zm14.088-8.22-8.817-5.74a2.738,2.738,0,0,0-3.162,0l-8.913,5.74a2.235,2.235,0,0,0-1.054,2v11.39a2.369,2.369,0,0,0,2.4,2.39H643.6a2.369,2.369,0,0,0,2.4-2.39v-11.39a2.235,2.235,0,0,0-1.054-2h0Zm0.1,13.39a1.472,1.472,0,0,1-1.438,1.43H625.4a1.472,1.472,0,0,1-1.438-1.43v-11.39a1.647,1.647,0,0,1,.671-1.24l8.817-5.74a2.124,2.124,0,0,1,2.108,0l8.817,5.74a1.647,1.647,0,0,1,.671,1.24v11.39h0Zm-6.9-5.17a0.477,0.477,0,0,0-.671.1,0.472,0.472,0,0,0,.1.67l5.75,4.78a0.341,0.341,0,0,0,.287.1,0.711,0.711,0,0,0,.383-0.2,0.473,0.473,0,0,0-.095-0.67l-5.75-4.78h0Z" transform="translate(-623 -6115)"/>
</svg>
