<svg xmlns="http://www.w3.org/2000/svg" width="16" height="28" viewBox="0 0 16 28">
  <defs>
    <style>
      .cls-1 {
        fill: #007fbc;
        fill-rule: evenodd;
      }
    </style>
  </defs>
  <path id="Фигура_563" data-name="Фигура 563" class="cls-1" d="M859.143,6305H848.857a2.858,2.858,0,0,0-2.857,2.92v22.16a2.858,2.858,0,0,0,2.857,2.92h10.286a2.858,2.858,0,0,0,2.857-2.92v-22.16a2.858,2.858,0,0,0-2.857-2.92h0ZM858,6307.33a0.551,0.551,0,0,1,.571.59,0.571,0.571,0,1,1-1.142,0,0.551,0.551,0,0,1,.571-0.59h0Zm-4.571,0h1.142a0.551,0.551,0,0,1,.572.59,0.543,0.543,0,0,1-.572.58h-1.142a0.543,0.543,0,0,1-.572-0.58,0.551,0.551,0,0,1,.572-0.59h0Zm-2.286,23.34h-2.286a0.551,0.551,0,0,1-.571-0.59,0.543,0.543,0,0,1,.571-0.58h2.286a0.543,0.543,0,0,1,.571.58,0.551,0.551,0,0,1-.571.59h0Zm8,0h-2.286a0.551,0.551,0,0,1-.571-0.59,0.543,0.543,0,0,1,.571-0.58h2.286a0.543,0.543,0,0,1,.571.58,0.551,0.551,0,0,1-.571.59h0Zm1.714-3.5H847.143v-16.34h13.714v16.34h0Z" transform="translate(-846 -6305)"/>
</svg>
