<svg xmlns="http://www.w3.org/2000/svg" width="28" height="28" viewBox="0 0 28 28">
  <defs>
    <style>
      .cls-1 {
        fill: #007fbc;
        fill-rule: evenodd;
      }
    </style>
  </defs>
  <path id="Фигура_569" data-name="Фигура 569" class="cls-1" d="M562.717,6312.93l-10.734-7.29a3.225,3.225,0,0,0-3.85,0l-10.85,7.29a2.908,2.908,0,0,0-1.283,2.56v14.47a2.953,2.953,0,0,0,2.917,3.04h22.166a2.953,2.953,0,0,0,2.917-3.04v-14.47a2.908,2.908,0,0,0-1.283-2.56h0Zm-16.45,11.44-7,6.08a0.422,0.422,0,0,1-.35.12,0.832,0.832,0,0,1-.467-0.25,0.617,0.617,0,0,1,.117-0.85l7-6.08a0.565,0.565,0,0,1,.816.12,0.628,0.628,0,0,1-.116.86h0Zm3.733-1.1a3.718,3.718,0,0,1-1.867-.61l-9.566-6.81a0.616,0.616,0,0,1-.117-0.85,0.566,0.566,0,0,1,.817-0.12l9.566,6.81a2.037,2.037,0,0,0,2.334,0l9.566-6.81a0.566,0.566,0,0,1,.817.12,0.616,0.616,0,0,1-.117.85l-9.566,6.81a3.718,3.718,0,0,1-1.867.61h0Zm11.55,7.05a0.581,0.581,0,0,1-.467.25,0.422,0.422,0,0,1-.35-0.12l-7-6.08a0.788,0.788,0,0,1-.116-0.86,0.7,0.7,0,0,1,.816-0.12l7,6.08a0.617,0.617,0,0,1,.117.85h0Z" transform="translate(-536 -6305)"/>
</svg>
