<svg xmlns="http://www.w3.org/2000/svg" width="664" height="372" viewBox="0 0 664 372">
  <defs>
    <style>
      .cls-1 {
        fill: #3b63a7;
        fill-opacity: 0.2;
        fill-rule: evenodd;
      }
    </style>
  </defs>
  <path id="pattern" class="cls-1" d="M537.182,4649.85l-0.045-5h0l-0.026-2.9,0,0.01-0.026-3.42v-0.01l-0.3-32.84h0l-0.174-19.01,0,0.01L536,4518.84l5.269-.03h0l43.9-.31h0.276l79.907-.57h1.281l26.962-.19h0l179.6-1.26h0l19.876-.14v-0.01l13.559-.09h0l42.806-.3h0l4.723-.04h0.974l1.7-.02v0.01l14.158-.1h0l116.469-.82h0.8l71.94-.51h0l29.49-.21h0l20.82-.15v0.01l15.13-.11,0.17,19.64h0.01l0.09,9.78h-0.01l0.18,19.48h0l0.37,41.31h0l0.76,83.46h0l0.07,8.93h0l0.71,78.44H1228l0.18,20.17v-0.01l0.63,69.52h0L1229,4886l-10.61-4.35a5.18,5.18,0,0,1-2.58,1.61,5.27,5.27,0,0,1-6.45-3.73,4.689,4.689,0,0,1-.14-0.82l-50.93-11.48a5.155,5.155,0,0,1-2.98,2.15,5.245,5.245,0,0,1-5.71-8.02l-16.84-24.63a3.273,3.273,0,0,1-.47.18,5.262,5.262,0,0,1-5.92-2.47l-114.88,21.79a5.229,5.229,0,0,1-3.74,3.91,5.265,5.265,0,0,1-5.9-7.77l-37.78-55.76a5.152,5.152,0,0,1-6.2-.73l-103.029,30.55a5.253,5.253,0,1,1-10.127-2.36l-29.126-18.13a5.242,5.242,0,0,1-7.913-6.81l-53.313-63.9a5.479,5.479,0,0,1-.714.27,5.266,5.266,0,0,1-6.152-2.94l-115.6,14.59a5.252,5.252,0,1,1-9.784-3.49l-84.685-93.55Zm1.8-6.53,8.916,1.7,92.509,17.69a4.917,4.917,0,0,1,.489-0.84l-48.81-42.73a5.226,5.226,0,0,1-7.381-.77l-30.143,14.94-15.609,7.73Zm278.06,157.47a5.229,5.229,0,0,1-.363,3.65l28.982,18.04a5.154,5.154,0,0,1,1.558-1.2L829.1,4738.79a4.555,4.555,0,0,1-.523-0.02l-14.36,58.66A5.242,5.242,0,0,1,817.043,4800.79Zm149.5-10.08a5.229,5.229,0,0,1,.156.95l66.8-13.73,68.54-14.1a5.216,5.216,0,0,1,.25-1.48l-164.578-61.99a5.168,5.168,0,0,1-1.769,1.58l0.465,1.5-0.037-.05,25.6,83.46A5.258,5.258,0,0,1,966.543,4790.71Zm163.527,35.96a5.252,5.252,0,0,1,4.81,1.73l20.88-16.51,41.13-32.53a4.9,4.9,0,0,1-.4-1.03,5.117,5.117,0,0,1-.16-1.34l-83.91-11.9a5.236,5.236,0,0,1-1.83,3.05Zm-27.5-247.83a5.235,5.235,0,0,1-1.84,5.25l0.72,2,24.19,66.65a5.077,5.077,0,0,1,2.16-.01l49.64-126.34Zm-3.75,6.22a5.261,5.261,0,0,1-6.12-2.86l-56.25,6.69a5.408,5.408,0,0,1-.48,1.42l86.93,64.01a4.905,4.905,0,0,1,1.02-.85l-24.85-68.51A2.6,2.6,0,0,1,1098.82,4585.06Zm-228.554,11.38a5.22,5.22,0,0,1-1.737,4.81l51.912,75.65L931,4692.28l-28.943-93.23-3.1-9.99a5.261,5.261,0,0,1-4.031-2.01Zm-68.695,23.01a5.244,5.244,0,0,1-3.885,5.28,5.338,5.338,0,0,1-1.981.13l-21.324,54.57a5.3,5.3,0,0,1,.522.3l85.78-79.64c-0.038-.06-0.081-0.12-0.119-0.19Zm-47.587,14.18-103.639,30.51c0.017,0.1.042,0.2,0.05,0.3l68.6,10.61,48.015,7.42a5.234,5.234,0,0,1,5.593-3.59l21.328-54.58a5.242,5.242,0,0,1-2.017-1.84Zm174.6,65.68a4.684,4.684,0,0,1-.239-0.62,5.243,5.243,0,0,1,1.342-5.04l-1.453-2.12-60.51-88.16,34.1,104.34a5.254,5.254,0,0,1,4.934,2.19Zm192.963-40.99a5.262,5.262,0,0,1,.36-2.43l-87.07-64.1a5.32,5.32,0,0,1-2.18,1.22,5.242,5.242,0,0,1-3.33-.23l-91.437,101.81a5.227,5.227,0,0,1,.607,1.34Zm-221.507,49.92-34.552-105.72a5.3,5.3,0,0,1-3.544-1.06l-85.694,79.56a4.947,4.947,0,0,1,.987,3.4l120.369,26.51A5.212,5.212,0,0,1,900.043,4708.24Zm0.77-119.47,4.285,13.8,27.793,89.55a5.245,5.245,0,0,1,3.752,1.07l91.087-101.41a5.189,5.189,0,0,1-1.52-2.5,0.02,0.02,0,0,1-.01-0.02l-48.218-1.38-74.026-2.12A5.235,5.235,0,0,1,900.813,4588.77Zm227.337,74.17a5.366,5.366,0,0,1-1.43.16l-16.97,96.34a5.258,5.258,0,0,1,2.61,3.27c0.04,0.17.05,0.34,0.08,0.51l84.2,11.94a5.16,5.16,0,0,1,1.49-2.14l-47.34-74.87-22.34-35.32C1128.35,4662.86,1128.25,4662.91,1128.15,4662.94Zm-22.24,96.05a5.107,5.107,0,0,1,2.05-.13l16.94-96.11a5.219,5.219,0,0,1-2.86-2.63l-79.22,16.27-104.159,21.4a5.356,5.356,0,0,1-.16.89l164.719,62.04A5.152,5.152,0,0,1,1105.91,4758.99Zm-145.847,28-15.035-49.03-10.87-35.45a5.236,5.236,0,0,1-4.564-1.62l-22.036,10.69a5.221,5.221,0,0,1-1.208,4.87l18.862,25.1,34.3,45.65A5.065,5.065,0,0,1,960.063,4786.99Zm-2.13,1.19-21.612-28.76-31.441-41.84a5.214,5.214,0,0,1-1.043.41,5.271,5.271,0,0,1-6.089-2.78l-63.843,17.03a5.274,5.274,0,0,1,.136,1.73l122.794,55.59A5.223,5.223,0,0,1,957.933,4788.18Zm-60.686-74.75a5.34,5.34,0,0,1-.016-0.69L776.8,4686.22a5.31,5.31,0,0,1-.417.77l25.423,21.53,24.266,20.55a4.983,4.983,0,0,1,1.37-.61,5.281,5.281,0,0,1,5.659,2.07Zm-72.58,16.89-49.693-41.9a5.04,5.04,0,0,1-4.491.69l-7.029,16.94-8.3,20a5.1,5.1,0,0,1,2.373,4.18l66.4,1.37A5.247,5.247,0,0,1,824.667,4730.32Zm-76.68-2.92a5.126,5.126,0,0,1,5.457-2.08l7.073-17.04,8.308-20.03a5.12,5.12,0,0,1-2.072-3.94l-116.526-18.02c-0.016.06-.024,0.12-0.043,0.18l49.327,30.73Zm43.205-106.66c-0.035-.16-0.058-0.32-0.078-0.48l-43.3-6.4-101.982-15.07a5.264,5.264,0,0,1-3.623,3.41c-0.1.02-.2,0.02-0.308,0.05l0.625,8.69,3.508,48.8a5.262,5.262,0,0,1,3.725,2.64Zm-154.98-21.14-12.62,4.43-29.613,10.41a5.226,5.226,0,0,1-.676,3.3l48.931,42.83a5.253,5.253,0,0,1,1.564-.74c0.124-.03.245-0.03,0.369-0.06l-4.129-57.46A5.313,5.313,0,0,1,636.212,4599.6Zm-54.151,9.4a5.2,5.2,0,0,1-.194,1.21l0.125,0.07,2.688,1.48a5.239,5.239,0,0,1,8.77.9l35.374-12.43Zm-3.868,4.82a5.251,5.251,0,0,1-4.44-.84l-16.381,12.45-16.63,12.65,15.166-7.51,27.906-13.83c-0.038-.11-0.094-0.21-0.125-0.33a5.2,5.2,0,0,1,.094-3.02l-2.747-1.52A5.2,5.2,0,0,1,578.193,4613.82Zm-39.269,23.31,33.532-25.51a5.176,5.176,0,0,1-.714-1.52,5.438,5.438,0,0,1-.143-0.87l-32.957-3.35Zm-0.3-33.12,33.14,3.37c0.035-.13.055-0.26,0.1-0.39L538.5,4589.75Zm-0.747-83.33,0.6,66.97,34.31,17.73a5.192,5.192,0,0,1,1.859-1.41l-32.653-83.31Zm46.822-.33-40.719.29,22.538,57.5,9.941,25.36a5.257,5.257,0,0,1,5.368,3.66l53.768-10.09a5.271,5.271,0,0,1,1.359-3.5Zm2.271-.01,35.253,49.4,16.2,22.7a4.641,4.641,0,0,1,1.044-.4,5.167,5.167,0,0,1,1.785-.14l22.83-72.1Zm105.866-.74-26.792.18-22.986,72.6a5.116,5.116,0,0,1,3.032,4.57l145.137,21.45a5.282,5.282,0,0,1,.657-1.56Zm2.633-.02,97.66,95.88a5.428,5.428,0,0,1,1.825-.9,5.235,5.235,0,0,1,4.144.64l72.7-96.86Zm178.669-1.25-73.649,98.11a5.355,5.355,0,0,1,.666,1.19l58.782-19.48a5.231,5.231,0,0,1,5.87-6.08l26.6-73.87Zm20.245-.15-26.811,74.48a5.238,5.238,0,0,1,2.08,2.02l4.416-1.68,20-7.61c-0.023-.07-0.06-0.14-0.08-0.21a5.24,5.24,0,0,1,3.717-6.43,5.414,5.414,0,0,1,.551-0.1l6.314-60.54Zm12.06-.08-4.03,38.65-2.286,21.95a5.3,5.3,0,0,1,1.294.44l44.36-61.32Zm49.653-.35-8.008.06-37.022,51.17-8.158,11.28a5.211,5.211,0,0,1,1.253,2.21,5.281,5.281,0,0,1,.159,1.44l121.753,3.48a5.175,5.175,0,0,1,.85-2.38l-42.434-40.3Zm14.687-.1-12.009.08,27.6,26.21,41.838,39.73a5.439,5.439,0,0,1,1.71-.83,5.278,5.278,0,0,1,6.45,3.73c0.04,0.15.05,0.3,0.08,0.45l11.34-1.35,44.42-5.28a5.3,5.3,0,0,1,.18-1.82l-47.18-23.63Zm4.089-.03L1093.2,4576.9a5.2,5.2,0,0,1,2.88-2c0.16-.04.31-0.05,0.47-0.08l-9.86-57.99Zm185.141-1.3-71.44.5,9.86,58.01a5.233,5.233,0,0,1,3.39,2.27l54.84-38.43,20.83-14.59-1.32-.65Zm4.53-.04,14.75,6.5,4.13-3.39,3.99-3.27Zm25.82-.18-0.14.12-7.55,6.19,12.32-1.93,12.12-1.91,0.84-2.59Zm33.44-.23-13.88.09-0.85,2.59-0.18.55,15.05,12.93Zm0.17,18.63-13.27-11.4-3.16-2.71-24.63,3.86,41.11,16.42Zm0.07,8.18-38.23-15.28-5.85-2.34-23.27,59.21-27.15,69.13c0.16,0.11.32,0.23,0.48,0.35l33.32-31.51,60.9-57.6Zm0.22,24.5-55.53,52.52-36.48,34.5,55.55-29.48,36.8-19.53Zm0.37,40.1-92.77,49.23a5.061,5.061,0,0,1,.09,2.25l42.24,11.97,51.14,14.48Zm0.72,79.86-12.31-3.48-81.72-23.14a5.083,5.083,0,0,1-1.23,1.43l21.48,33.97,48.16,76.16a3.943,3.943,0,0,1,.48-0.18,5.183,5.183,0,0,1,1.99-.13l23.23-75.3Zm0.13,15.46-21.5,69.72a5.249,5.249,0,0,1,2.68,3.3c0.01,0.03,0,.06.01,0.1l0.91-.03,18.56-.59Zm0.68,74.36-4.6.14-14.76.47a5.539,5.539,0,0,1-.32,1.29l19.81,12.9Zm0.15,17.03-20.78-13.54a5.164,5.164,0,0,1-2.35,1.52l1.8,14.89,9.16,76.07a5.252,5.252,0,0,1,3.71,1.25l2.9-2.5,6.21-5.37Zm0.68,74.76-1.92,1.66-6.04,5.22a5.743,5.743,0,0,1,.5,1.19,5.256,5.256,0,0,1-.18,3.22l7.77,3.18Zm-14.66,4.63-10.97-90.95-0.02-.22a5.528,5.528,0,0,1-1.47-.26l-42.74,78.2a5.129,5.129,0,0,1,1.92,5.36l50.32,11.33A5.194,5.194,0,0,1,1212.33,4873.38Zm-61.41-13.37a5.2,5.2,0,0,1,1.66-.79,5.28,5.28,0,0,1,2.9.07l42.77-78.26a2.11,2.11,0,0,1-.23-0.19l-41.57,32.87-20.62,16.31a3.124,3.124,0,0,1,.17.46,5.241,5.241,0,0,1-1.63,5.31Zm-25.17-27.35a5.218,5.218,0,0,1,2.56-5.38l-19.38-58.24c-0.1.03-.19,0.08-0.29,0.11a5.239,5.239,0,0,1-4.45-.86l-29.58,26.65-63.74,57.43a5.136,5.136,0,0,1,.59,1.33,4.76,4.76,0,0,1,.11.64Zm-160.142-37.09,37.512,55.36a5.183,5.183,0,0,1,1.89-.95,5.26,5.26,0,0,1,4.64.98l93.26-84.01a5.163,5.163,0,0,1-.62-1.27L966.481,4793.6a5.286,5.286,0,0,1-.973,1.82Zm-9.367-4.24-49.46-22.39-73.228-33.16a5.219,5.219,0,0,1-2.525,2.52l17.858,82.1,0.084,0.37a5.256,5.256,0,0,1,5.693,3.76l102.027-30.28A4.97,4.97,0,0,1,956.241,4791.33Zm-147.216,6.47a5.254,5.254,0,0,1,1.566-.73,5.127,5.127,0,0,1,1.86-.14l8.432-34.18,5.688-24.48a5.24,5.24,0,0,1-2.844-3.37,5.312,5.312,0,0,1-.158-1.45l-0.767-.02-65.531-1.35a5.2,5.2,0,0,1-1.352,2.11Zm-62-67.06a5.1,5.1,0,0,1,.178-1.64l-97.884-60.98a5.064,5.064,0,0,1-4.189,2.03l-15.86,71.38a5.261,5.261,0,0,1,2.561,3.24c0.044,0.17.053,0.33,0.08,0.5Zm-123.638,11.35a5.172,5.172,0,0,1,1.993-1.04,5.278,5.278,0,0,1,2.122-.12l15.836-71.1a5.158,5.158,0,0,1-3.4-5.32L539,4645.21l0.039,3.91Z" transform="translate(-536 -4514)"/>
</svg>
