<svg xmlns="http://www.w3.org/2000/svg" width="610.031" height="526.62" viewBox="0 0 610.031 526.62">
  <defs>
    <style>
      .cls-1 {
        fill: #3b63a7;
        fill-opacity: 0.2;
        fill-rule: evenodd;
      }
    </style>
  </defs>
  <path id="pattern" class="cls-1" d="M610.032,5232.58l-1.188,4.85h0l-0.689,2.82h0l-0.818,3.32h0l-7.807,31.91h0l-4.513,18.46,0-.01-16.124,65.9-5.115-1.26h0l-42.622-10.51-0.268-.07-77.58-19.15-1.244-.31h0l-26.178-6.46h0l-174.375-43.04h0l-19.3-4.76h0l-13.163-3.25h0l-41.56-10.25,0-.01-4.586-1.12h0l-0.945-.24-1.653-.4v-0.01l-13.745-3.39h0L43.483,5227.69l-0.772-.19-69.844-17.24H-27.14l-28.628-7.06h0l-20.216-4.99h0l-14.685-3.63L-86,5175.5h0l2.325-9.5h0l4.629-18.92h0l9.822-40.13h0l19.838-81.07h0l2.127-8.67,0-.01,18.64-76.19h-0.006l4.8-19.59h0l16.521-67.53h0l5.063-20.66,9.206,6.82a5.262,5.262,0,0,1,8.234,4.28,5.153,5.153,0,0,1-.072.83l46.533,23.67a5.19,5.19,0,0,1,3.417-1.34,5.269,5.269,0,0,1,5.335,5.2,5.207,5.207,0,0,1-1.778,3.98l10.251,28.02a4.2,4.2,0,0,1,.505-0.06,5.267,5.267,0,0,1,5.121,3.86l116.713,7.18a5.254,5.254,0,1,1,8.388,6.12l22.876,63.35a5.357,5.357,0,0,1,1.337-.21,5.273,5.273,0,0,1,4.5,2.45l107.38-4.22a5.254,5.254,0,1,1,9.232,4.79l23.76,24.75a5.2,5.2,0,0,1,2.507-.7,5.249,5.249,0,0,1,3.484,9.25l35.922,75.06a6.3,6.3,0,0,1,.758-0.09,5.271,5.271,0,0,1,5.239,4.37l115.628,14.35a5.252,5.252,0,1,1,8.623,5.79l59.02,111.53Zm-3.354,5.88-8.222-3.85-85.3-39.93a5.48,5.48,0,0,1-.681.69l36.776,53.44a5.228,5.228,0,0,1,6.964,2.56l32.894-7.04,17.033-3.65ZM376,5017.32a5.213,5.213,0,0,1,1.25-3.44l-23.642-24.63a5.062,5.062,0,0,1-1.807.78l-2.763,84.41c0.172,0.04.335,0.1,0.5,0.15l28.372-53.31A5.239,5.239,0,0,1,376,5017.32Zm-147.374-27.06a5.309,5.309,0,0,1,.084-0.97l-68.125-3.15-69.9-3.23a5.3,5.3,0,0,1-.614,1.38L234.3,5084.92a5.251,5.251,0,0,1,2.105-1.1l-0.082-1.56,0.021,0.06-4.238-87.19A5.271,5.271,0,0,1,228.625,4990.26ZM79,4915.1a5.239,5.239,0,0,1-4.232-2.86L50.462,4923.1,2.587,4944.49a5.313,5.313,0,0,1,.134,1.09,5.149,5.149,0,0,1-.175,1.34l78.385,32.21a5.275,5.275,0,0,1,2.525-2.51ZM44.581,5162.07a5.228,5.228,0,0,1,3.078-4.64l-0.21-2.11-7.016-70.56a5.275,5.275,0,0,1-2.1-.52L-40.9,5194.45Zm5.169-5.1a5.253,5.253,0,0,1,5.23,4.27l56.158,7.38a5.11,5.11,0,0,1,.818-1.25l-68.474-83.46a5.188,5.188,0,0,1-1.2.57l7.206,72.51C49.573,5156.99,49.659,5156.97,49.75,5156.97Zm224.307,45.29a5.229,5.229,0,0,1,2.87-4.24l-31.669-86.1-6.442-17.52,5.075,97.5,0.543,10.44a5.266,5.266,0,0,1,3.413,2.94Zm72.247-5.37a5.243,5.243,0,0,1,5.066-4.16,5.1,5.1,0,0,1,1.954.36l34.114-47.63c-0.153-.14-0.294-0.28-0.43-0.43l-102.763,56.05c0.022,0.07.049,0.14,0.069,0.21Zm49.615-2.02,107.961-4.03c0.009-.1.01-0.21,0.026-0.3l-63.866-27.19-44.7-19.02a5.237,5.237,0,0,1-4.374,2.45,5.389,5.389,0,0,1-1.932-.35l-34.119,47.63a5.27,5.27,0,0,1,1.5,2.28ZM242.886,5088.19a4.76,4.76,0,0,1,.077.66,5.225,5.225,0,0,1-2.541,4.55l0.888,2.41,36.916,100.36-7.336-109.53a5.247,5.247,0,0,1-4.242-3.34Zm-197.109-7.83a5.185,5.185,0,0,1-.953,2.26l68.59,83.59a5.144,5.144,0,0,1,5.588.4l113.7-76.14a5.275,5.275,0,0,1-.259-1.45Zm226.974,6.2,7.432,110.99a5.235,5.235,0,0,1,3.174,1.89l102.657-55.98a5.37,5.37,0,0,1-.388-1.88,5.221,5.221,0,0,1,.27-1.66l-110.124-55.36A5.182,5.182,0,0,1,272.751,5086.56Zm-30.189,115.61-0.751-14.44-4.869-93.63a5.246,5.246,0,0,1-3.37-1.97L120.3,5167.97a5.241,5.241,0,0,1,.864,2.8s0,0.01,0,.02l46.392,13.22,71.222,20.3A5.187,5.187,0,0,1,242.562,5202.17ZM40.519,5074.26a5.1,5.1,0,0,1,1.415.2l40.2-89.2a5.211,5.211,0,0,1-1.727-3.8,4.913,4.913,0,0,1,.045-0.52L1.793,4948.62a5.239,5.239,0,0,1-1.972,1.71l27.429,84.22,12.944,39.74C40.3,5074.28,40.407,5074.26,40.519,5074.26Zm45.222-87.6a5.426,5.426,0,0,1-2.023-.38l-40.1,88.96a5.237,5.237,0,0,1,2.125,3.26l80.78,3.75,106.225,4.93a5.165,5.165,0,0,1,.373-0.82L88.77,4985.64A5.285,5.285,0,0,1,85.742,4986.66Zm148.246,8.79,2.488,51.23,1.8,37.03a5.24,5.24,0,0,1,4.022,2.7l23.991-4.93a5.241,5.241,0,0,1,2.372-4.43l-12.095-28.97-22-52.69A5.54,5.54,0,0,1,233.988,4995.45Zm2.357-.62,13.858,33.2,20.162,48.29a5.772,5.772,0,0,1,1.11-.14,5.28,5.28,0,0,1,5.219,4.19l66.069-.76a5.3,5.3,0,0,1,.293-1.71L237.75,4993.76A5.317,5.317,0,0,1,236.345,4994.83Zm40.393,87.4a5.17,5.17,0,0,1-.154.67l110.18,55.38a4.752,4.752,0,0,1,.594-0.64l-19.333-27.14-18.453-25.89a5.532,5.532,0,0,1-1.479.25,5.265,5.265,0,0,1-4.973-3.4Zm74.506,1.51,37.836,52.86a5.011,5.011,0,0,1,1.735-.34,5.282,5.282,0,0,1,2.786.77l10.987-14.68,12.969-17.34a5.221,5.221,0,0,1-1.394-3.46,5.105,5.105,0,0,1,.125-1.17l-64.02-17.7A5.121,5.121,0,0,1,351.244,5083.74Zm73.6,21.73a5.106,5.106,0,0,1-5.8.67l-11.053,14.77L395,5138.27a5.23,5.23,0,0,1,1.154,3.19,5.473,5.473,0,0,1-.116,1.15l108.491,46.17c0.03-.05.054-0.11,0.086-0.16l-40.232-41.94Zm-68.157,92.72c-0.006.17-.023,0.32-0.044,0.48l40.391,16.88,95.124,39.74a5.236,5.236,0,0,1,4.351-2.41c0.105,0,.2.02,0.31,0.03l1.537-8.58,8.626-48.16a5.255,5.255,0,0,1-2.96-3.48Zm144.989,58.69L515,5255.69l31.263-2.79a5.2,5.2,0,0,1,1.469-3.03L510.86,5196.3a5.292,5.292,0,0,1-1.7.33c-0.128,0-.246-0.03-0.372-0.04l-10.161,56.72A5.263,5.263,0,0,1,501.672,5256.88Zm54.8,4.22a5.255,5.255,0,0,1,.485-1.12l-0.1-.1-2.241-2.1a5.166,5.166,0,0,1-3.082,1.06,5.267,5.267,0,0,1-5.195-4.09l-37.348,3.34Zm4.934-3.71a5.257,5.257,0,0,1,4.1,1.91l18.946-8.04,19.234-8.16-16.55,3.55-30.453,6.52c0.009,0.12.038,0.23,0.04,0.35a5.221,5.221,0,0,1-.836,2.91l2.288,2.15A5.186,5.186,0,0,1,561.406,5257.39Zm43.8-12.92-38.784,16.46a5.206,5.206,0,0,1,.316,1.66,5.579,5.579,0,0,1-.076.88l31.114,11.36Zm-7.869,32.18-31.288-11.43c-0.065.11-.117,0.24-0.191,0.35l28.084,24.93Zm-19.81,80.94,15.922-65.05L564.57,5266.9a5.1,5.1,0,0,1-2.149.91l11.115,88.79Zm-45.459-11.22,39.534,9.75-7.673-61.28-3.385-27.02a5.266,5.266,0,0,1-4.3-4.87l-54.6-3.47a5.225,5.225,0,0,1-2.178,3.05Zm-2.205-.54-21.992-56.57-10.111-25.99a5.088,5.088,0,0,1-1.112.13,5.176,5.176,0,0,1-1.764-.3L455,5327.34Zm-102.784-25.38,26.012,6.43,40.166-64.69a5.141,5.141,0,0,1-1.813-5.18l-135.374-56.56a5.135,5.135,0,0,1-1.021,1.35Zm-2.556-.63-71.02-116.99a5.216,5.216,0,0,1-5.849-1.22l-94.329,75.96Zm-173.469-42.81,95.558-76.94a5.245,5.245,0,0,1-.354-1.32l-61.767,4.39a5.23,5.23,0,0,1-5.147,4.84,5.15,5.15,0,0,1-2.043-.39l-43.979,65.04Zm-19.655-4.85,44.337-65.57a5.249,5.249,0,0,1-1.517-2.48l-4.694.54-21.263,2.45c0,0.08.025,0.15,0.026,0.22a5.241,5.241,0,0,1-5.188,5.32,5.068,5.068,0,0,1-.556-0.04l-21.039,57.12Zm-11.708-2.89,13.43-36.47,7.624-20.7a5.585,5.585,0,0,1-1.145-.76l-58.1,48.5Zm-48.21-11.9,7.776,1.92,48.493-40.47,10.685-8.92a4.945,4.945,0,0,1-.468-3.89l-117.136-33.38a5.265,5.265,0,0,1-1.419,2.1l31.2,49.51Zm-14.259-3.52,11.66,2.88L148.6,5224.52l-30.753-48.81a5.241,5.241,0,0,1-7.2-4.82c0-.16.029-0.3,0.04-0.46l-11.326-1.49L55,5163.12a5.123,5.123,0,0,1-.626,1.71l39.9,34.54Zm-3.969-.98L53.184,5166.25a5.221,5.221,0,0,1-3.286,1.24,3.729,3.729,0,0,1-.473-0.05l-4.732,58.64Zm-179.75-44.36,69.354,17.11,4.74-58.65a5.271,5.271,0,0,1-2.724-3.03l-62.619,23.72-23.785,9.01,1.126,0.96Zm-4.4-1.09-12.692-9.92-4.843,2.26-4.667,2.18Zm-25.071-6.19,0.16-.07,8.852-4.14-12.416-1.16-12.22-1.15-1.453,2.31Zm-32.461-8.01,13.476,3.33,1.457-2.3,0.308-.49-11.4-16.24Zm4.425-18.1,10.052,14.33,2.391,3.4,24.819,2.33-35.794-26.05Zm1.946-7.94,33.287,24.23,5.095,3.7,37.136-51.64,43.357-60.31a5.044,5.044,0,0,1-.387-0.46l-40.057,22.34-73.209,40.81Zm5.827-23.8,66.763-37.22,43.847-24.44-61.092,14.88-40.485,9.86Zm9.526-38.96,102.032-24.84a5.166,5.166,0,0,1,.468-2.21l-37.988-22.01-45.991-26.63Zm18.981-77.57,11.065,6.41,73.5,42.56a5.262,5.262,0,0,1,1.549-1.08l-12.446-38.21-27.909-85.68a4.226,4.226,0,0,1-.5.05,5.169,5.169,0,0,1-1.97-.36l-41.06,67.25Zm3.676-15.01,38.026-62.28A5.241,5.241,0,0,1-7.8,4945.7c0-.03.009-0.06,0.008-0.09l-0.885-.2-18.133-4Zm17.671-72.23,4.5,0.99,14.421,3.18a5.233,5.233,0,0,1,.625-1.17l-16.022-17.39Zm4.048-16.55,16.81,18.24a5.222,5.222,0,0,1,2.645-.89l1.931-14.88,9.86-75.97a5.292,5.292,0,0,1-3.287-2.14l-3.428,1.71-7.341,3.68Zm17.767-72.62,2.273-1.14,7.141-3.57a5.152,5.152,0,0,1-.194-1.27,5.257,5.257,0,0,1,.963-3.09l-6.74-4.99Zm15.353-.87-11.788,90.84-0.029.22a5.367,5.367,0,0,1,1.357.61l60.693-65.25a5.124,5.124,0,0,1-.538-5.67l-45.978-23.38A5.237,5.237,0,0,1,10.794,4849.57Zm56.215,28.08a5.122,5.122,0,0,1-1.8.36,5.228,5.228,0,0,1-2.8-.78L1.68,4942.53c0.059,0.08.117,0.16,0.173,0.25l48.39-21.62,24-10.72c-0.018-.16-0.054-0.32-0.057-0.49a5.224,5.224,0,0,1,2.895-4.74Zm17.656,32.71a5.214,5.214,0,0,1-3.808,4.58l4.43,61.23c0.1-.01.2-0.04,0.306-0.04a5.221,5.221,0,0,1,4.1,1.93l35.233-18.54,75.929-39.95a4.085,4.085,0,0,1-.19-2.08Zm146.063,75.41-22.71-62.89a5.119,5.119,0,0,1-2.072.45,5.217,5.217,0,0,1-4.252-2.1L90.613,4979.68a5.305,5.305,0,0,1,.285,1.38l138.5,6.4a5.283,5.283,0,0,1,1.39-1.51Zm8.034,6.42,42.415,33.89,62.8,50.18a5.2,5.2,0,0,1,3.067-1.82l2.924-83.97,0.009-.37a5.263,5.263,0,0,1-4.589-5.05l-106.342,4.2A4.987,4.987,0,0,1,238.763,4992.19Zm144.27,30.01a5.037,5.037,0,0,1-3.536,0l-16.6,31.05-11.544,22.32a5.091,5.091,0,0,1,1.722,5.41l0.74,0.2,63.175,17.46a5.275,5.275,0,0,1,1.831-1.71Zm43.563,80.26a4.987,4.987,0,0,1-.578,1.55l79.837,83.23a5.157,5.157,0,0,1,3.162-1.13,4.984,4.984,0,0,1,1.4.19l32.961-65.27a5.237,5.237,0,0,1-1.682-3.77,4.908,4.908,0,0,1,.045-0.51Zm122.62,19.48a5.159,5.159,0,0,1-4.275.11l-32.867,65a5.276,5.276,0,0,1,2.278,4.26,5.219,5.219,0,0,1-.293,1.74l93.072,43.58,0.925-3.81Z" transform="translate(0 -4833.22)"/>
</svg>
