<svg xmlns="http://www.w3.org/2000/svg" width="10" height="15" viewBox="0 0 10 15">
  <defs>
    <style>
      .cls-1 {
        fill: #fff;
        fill-rule: evenodd;
      }
    </style>
  </defs>
  <path id="icon3" class="cls-1" d="M916.823,426.312v-2.251a3.831,3.831,0,1,0-7.647,0v2.251a1.519,1.519,0,0,0-1.176,1.5v5.625A1.5,1.5,0,0,0,909.471,435h7.058A1.5,1.5,0,0,0,918,433.437v-5.625a1.519,1.519,0,0,0-1.176-1.5h0Zm-3.176,4.749,0.235,1.688a0.393,0.393,0,0,1-.059.25,0.433,0.433,0,0,1-.235.124h-1.176a0.439,0.439,0,0,1-.236-0.124,0.4,0.4,0,0,1-.058-0.25l0.235-1.688a1.622,1.622,0,0,1-.824-1.375,1.474,1.474,0,1,1,2.942,0,1.544,1.544,0,0,1-.824,1.375h0Zm1.412-4.812h-4.118v-2.188a2.063,2.063,0,1,1,4.118,0v2.188h0Z" transform="translate(-908 -420)"/>
</svg>
