<svg xmlns="http://www.w3.org/2000/svg" width="29" height="29" viewBox="0 0 29 29">
  <defs>
    <style>
      .cls-1 {
        fill: #fff;
        fill-rule: evenodd;
      }
    </style>
  </defs>
  <path id="Фигура_563_копия" data-name="Фигура 563 копия" class="cls-1" d="M656.823,58.446L643.954,45.559a2.11,2.11,0,0,0-2.917,0L628.168,58.446a0.606,0.606,0,0,0,.428,1.034h1.813V73.4a0.605,0.605,0,0,0,.605.605h7.252a0.605,0.605,0,0,0,.6-0.605V63.111h7.252V73.4a0.605,0.605,0,0,0,.6.605h7.252a0.6,0.6,0,0,0,.6-0.605V59.48h1.813a0.606,0.606,0,0,0,.429-1.034h0Zm-2.845-.177a0.605,0.605,0,0,0-.6.606v13.92h-6.042V62.505a0.605,0.605,0,0,0-.605-0.6h-8.46a0.605,0.605,0,0,0-.605.6V72.795h-6.043V58.875a0.605,0.605,0,0,0-.6-0.606h-0.959l11.837-11.853a0.878,0.878,0,0,1,1.207,0l11.837,11.853h-0.959Z" transform="translate(-628 -45)"/>
</svg>
