<svg xmlns="http://www.w3.org/2000/svg" width="225" height="39" viewBox="0 0 225 39">
  <defs>
    <style>
      .cls-1 {
        fill: #fe0101;
        fill-rule: evenodd;
      }
    </style>
  </defs>
  <path id="Logo_Doteck" data-name="Logo Doteck" class="cls-1" d="M224.825,676.366a66.244,66.244,0,0,0,21.051-12.306c0.71-.626.632-2.389,2.157-1.787a4.746,4.746,0,0,1,2.423,3.008c0.519,1.425-.931,1.785-1.769,2.3a98.94,98.94,0,0,1-10.7,6.235c-3.509,1.591-2.692,2.833-.636,4.936a38.816,38.816,0,0,0,17.531,10.739,0.152,0.152,0,0,1,.064.257c-2.63,2.443-5.082,2.979-8.135,1.079a49.856,49.856,0,0,1-12.721-11.7c-1.291-1.634-2.2-2.257-4.42-1.163-5.388,2.656-5.48,2.5-4.681,8.385,0.126,0.933.4,1.847,0.565,2.777,0.316,1.821-.464,3.18-2.356,3.319-2.014.148-2.236-1.4-2.148-2.943,0.5-8.741.356-17.486,0.2-26.231-0.035-1.888-.088-3.782-0.3-5.656-0.134-1.191-.581-2.45.628-3.257,1.572-1.05,2.717.427,3.991,0.927,1.564,0.613,1.16,1.912.834,3.043-1.5,5.187-1.488,10.515-1.676,15.826C224.707,674.731,224.776,675.311,224.825,676.366Zm-10.587,4.763a0.305,0.305,0,0,1,.542.108c0.978,5.284-1.208,8.809-6.19,10.146a27.43,27.43,0,0,1-16.288-.433c-6.195-2.13-9.518-7.094-9.365-13.757,0.163-7.072,3.847-12.141,10.21-14.011,7.653-2.247,14.489-.238,20.962,3.718a1.43,1.43,0,0,1,.7,2.054c-0.5,1.205-.756,2.763-2.006,3.239-1.1.417-1.316-1.114-1.845-1.812-4.643-6.126-12.191-7.55-18.419-3.427-5.12,3.388-6.745,12.2-3.249,17.624,4.211,6.538,16.984,6.471,22.527-.142C212.61,683.486,213.3,682.448,214.238,681.129Zm-72.36-15.055c-1.523,3.046-3.456,4.6-6.754,4.11a7.786,7.786,0,0,0-1.322-.079c-2.774.06-6.558-2.06-8.193-.09-1.467,1.768-.293,5.572-0.466,8.318a16.546,16.546,0,0,0,0,2.8c0.286,2.668-.758,6.088,2.632,7.487a10.213,10.213,0,0,0,9.839-.654c1.488-.969,2.8-2.18,4.188-3.273a1.822,1.822,0,0,1,.3,2.1c-1.2,4.553-5.51,6.58-12.246,5.806-5.894-.676-8.372-2.884-8.379-7.887a113.477,113.477,0,0,1,.577-12.369c0.283-2.609-.382-3.306-3.086-2.389a10.44,10.44,0,0,1-2.533.47c-0.975.079-2.425,1.356-2.932-.1-0.484-1.394.468-2.74,1.844-3.521a3.479,3.479,0,0,1,1.437-.144c6.077-.284,6.077-0.282,4.849-6.173q-0.144-.693-0.3-1.384c-0.275-1.2-1.371-2.468.042-3.568a2.249,2.249,0,0,1,2.725.214c1.373,0.88,2.629,1.767,2.141,3.675-0.407,1.6-.726,3.218-1.043,4.836-0.346,1.764.3,2.5,2.308,2.487,4.6-.024,9.2.278,14.1-0.972A0.223,0.223,0,0,1,141.878,666.074Zm-69.959,7.339c-0.938-12.51-7.911-18.743-20.985-18.758H45.406v0.014c-2.826,0-5.65-.012-8.476,0a12.273,12.273,0,0,0-5.026.906,2.958,2.958,0,0,0-1.867,3.19c0.292,1.757,1.8.736,2.668,0.63,2.508-.306,2.47,1.309,2.618,2.862,0.755,7.908.033,15.812-.052,23.719a2.2,2.2,0,0,1-1.684,2.328c-1.749.658-3.984,1.786-3.4,3.611,0.712,2.211,2.985.377,4.376,0.16,5.322-.831,10.518-0.057,15.764.478C64.579,694.011,72.907,686.6,71.919,673.413Zm-5.162,4.916c-1.174,7-5.305,10.345-13.663,10.732-3.654.169-7.337-.338-11.01-0.46-1.992-.066-2.316-1.33-2.568-2.823-0.734-4.343-.289-8.708-0.39-13.065,0.211-3.767.5-7.532,0.615-11.3,0.071-2.31.984-3.469,3.524-3.4,3.186,0.086,6.38-.108,9.563,0,6.722,0.231,11.3,3.68,13.259,9.818A22.143,22.143,0,0,1,66.757,678.329Zm97.389,10.735c-7.241,1.388-14.386-2.677-15.826-8.925-0.455-1.978-.281-3.021,2.327-2.953,7.494,0.193,15,.1,22.492.227a5.037,5.037,0,0,0,4.778-7.269,12.952,12.952,0,0,0-3.88-4.42c-6.675-4.858-18.477-4.455-24.783.847-7.412,6.233-6.375,19.172,2.192,23.428,7.17,3.564,14.759,3.272,22.036.06,3.95-1.745,5.432-5.16,4.4-9.586a0.308,0.308,0,0,0-.546-0.091A20.235,20.235,0,0,1,164.146,689.064Zm-15.1-16.558c2.707-4.834,7.211-7.012,12.6-7.35,4.888-.306,8.715,1.882,11.38,5.884,1.349,2.026,1.182,3.22-1.673,3.2-3.431-.024-6.533.126-9.964,0.126,0,0.112-.329.094-0.329,0.206-3.555,0-7.11-.029-10.665.013C148.652,674.605,148.185,674.046,149.047,672.506ZM91.93,661c-7.94.409-15.667,8.41-15.881,16.444-0.226,8.555,6.7,14.767,16.536,14.823,10.166,0.058,16.9-5.712,17.094-14.646C109.858,669.309,100.516,660.559,91.93,661Zm1.114,27.79c-7.891.074-12.876-4.311-12.977-11.412-0.1-7.2,4.6-11.466,12.7-11.548,7.872-.079,12.853,4.367,12.844,11.464C105.6,684.136,100.592,688.721,93.044,688.791Z" transform="translate(-30 -654)"/>
</svg>
