<svg xmlns="http://www.w3.org/2000/svg" width="13" height="22" viewBox="0 0 13 22">
  <defs>
    <style>
      .cls-1 {
        fill: #fff;
        fill-rule: evenodd;
      }
    </style>
  </defs>
  <path id="icon2" class="cls-1" d="M846.75,277h-6.5a3.27,3.27,0,0,0-3.25,3.208V295.79A3.269,3.269,0,0,0,840.25,299h6.5A3.269,3.269,0,0,0,850,295.79V280.207A3.27,3.27,0,0,0,846.75,277h0Zm2.321,18.792a2.284,2.284,0,0,1-2.321,2.291h-6.5a2.284,2.284,0,0,1-2.321-2.291v-1.375h11.142v1.375h0Zm0-2.292H837.929V281.583h11.142V293.5h0Zm0-12.834H837.929v-0.458a2.284,2.284,0,0,1,2.321-2.291h6.5a2.284,2.284,0,0,1,2.321,2.291v0.458h0Zm-5.571,16.5a0.917,0.917,0,1,0-.929-0.916,0.872,0.872,0,0,0,.929.916h0Zm1.393-18.333h-2.786a0.459,0.459,0,1,0,0,.917h2.786a0.459,0.459,0,1,0,0-.917h0Zm1.857,0h0a0.459,0.459,0,1,0,.464.459,0.436,0.436,0,0,0-.464-0.459h0Z" transform="translate(-837 -277)"/>
</svg>
