<svg id="Sorrento_networks_logo" data-name="Sorrento networks logo" xmlns="http://www.w3.org/2000/svg" width="139" height="77" viewBox="0 0 139 77">
  <defs>
    <style>
      .cls-1 {
        fill: #3b63a7;
      }

      .cls-1, .cls-2 {
        fill-rule: evenodd;
      }

      .cls-2 {
        fill: #c92231;
      }
    </style>
  </defs>
  <path id="_2" data-name="2" class="cls-1" d="M987.563,5822.04l0.943-2.22a6.334,6.334,0,0,0,1.8.82,6.708,6.708,0,0,0,1.932.33,3.628,3.628,0,0,0,2.431-.77,2.463,2.463,0,0,0,.918-1.97,2.872,2.872,0,0,0-.512-1.64,6.2,6.2,0,0,0-2.564-1.67l-1.525-.67a5.938,5.938,0,0,1-2.706-1.99,4.924,4.924,0,0,1-.769-2.79,4.161,4.161,0,0,1,1.494-3.27,5.679,5.679,0,0,1,3.841-1.3q3.13,0,4.357.96l-0.759,2.12a5.919,5.919,0,0,0-1.571-.68,6.555,6.555,0,0,0-1.952-.33,2.939,2.939,0,0,0-2.064.69,2.333,2.333,0,0,0-.75,1.79,2.7,2.7,0,0,0,.267,1.22,2.611,2.611,0,0,0,.752.93,11.46,11.46,0,0,0,1.974,1.05l1.545,0.68a6.067,6.067,0,0,1,2.708,2.04,5.41,5.41,0,0,1,.778,3.01,4.222,4.222,0,0,1-1.707,3.38,7.069,7.069,0,0,1-4.571,1.38,7.944,7.944,0,0,1-4.293-1.1h0Zm18.677-9.21a3.2,3.2,0,0,1,2.66-1.28q3.645,0,3.64,4.8a5.862,5.862,0,0,1-.97,3.57,3.132,3.132,0,0,1-2.67,1.31c-2.44,0-3.65-1.63-3.65-4.88a5.6,5.6,0,0,1,.99-3.52h0Zm-1.94,8.44a6.7,6.7,0,0,0,9.16.02,8.161,8.161,0,0,0,.04-9.84,5.99,5.99,0,0,0-4.6-1.76,5.909,5.909,0,0,0-4.53,1.84,6.743,6.743,0,0,0-1.72,4.82,7.071,7.071,0,0,0,1.65,4.92h0Zm23.54-9.15a3,3,0,0,0-1.61-.52,2.945,2.945,0,0,0-2.28,1.13,4.039,4.039,0,0,0-.97,2.73v7.38h-2.45v-12.9h2.45v2.07a4.314,4.314,0,0,1,3.98-2.32,12.125,12.125,0,0,1,1.89.21l-1.01,2.22h0Zm12.9,0a3.009,3.009,0,0,0-1.62-.52,2.94,2.94,0,0,0-2.27,1.13,4.089,4.089,0,0,0-.97,2.73v7.38h-2.45v-12.9h2.45v2.07a4.314,4.314,0,0,1,3.98-2.32,12.125,12.125,0,0,1,1.89.21l-1.01,2.22h0Zm13.87,0.52a3.237,3.237,0,0,1,.92,2.34h-7.63a3.576,3.576,0,0,1,1.19-2.37,3.955,3.955,0,0,1,2.75-1.01,3.71,3.71,0,0,1,2.77,1.04h0Zm3.37,2.59a5.171,5.171,0,0,0-1.62-3.98,6.535,6.535,0,0,0-4.63-1.56,6.283,6.283,0,0,0-4.4,1.72,6.648,6.648,0,0,0-2.08,5.13,6.3,6.3,0,0,0,6.45,6.55,10.2,10.2,0,0,0,3.27-.5,4.83,4.83,0,0,0,1.74-.91l-1.03-1.66a5.332,5.332,0,0,1-3.5,1.16,4.353,4.353,0,0,1-3.01-1.06,4.508,4.508,0,0,1-1.32-3.48h9.94a5.224,5.224,0,0,0,.19-1.41h0Zm13.71,7.61v-7.52a4.782,4.782,0,0,0-.66-2.89,2.686,2.686,0,0,0-2.22-.83,4.317,4.317,0,0,0-3.14,1.64v9.6h-2.45v-12.9h1.67l0.77,1.66a4.326,4.326,0,0,1,3.95-1.91c3.02,0,4.52,1.72,4.52,5.16v7.99h-2.44Zm9.43-11.09h-1.62v-1.81h1.62v-2.7l2.44-.87v3.57h3.77v1.81h-3.77v6.43a3.61,3.61,0,0,0,.58,2.31,2.34,2.34,0,0,0,1.88.69,4.726,4.726,0,0,0,1.93-.46l0.36,2a13.835,13.835,0,0,1-3.32.37,3.69,3.69,0,0,1-2.75-1.14,3.92,3.92,0,0,1-1.12-2.87v-7.33h0Zm14.93,1.08a3.2,3.2,0,0,1,2.65-1.28q3.645,0,3.64,4.8a5.93,5.93,0,0,1-.96,3.57,3.162,3.162,0,0,1-2.68,1.31q-3.645,0-3.65-4.88a5.541,5.541,0,0,1,1-3.52h0Zm-1.94,8.44a6.687,6.687,0,0,0,9.15.02,8.121,8.121,0,0,0,.04-9.84,5.961,5.961,0,0,0-4.6-1.76,5.872,5.872,0,0,0-4.52,1.84,6.743,6.743,0,0,0-1.72,4.82,7.071,7.071,0,0,0,1.65,4.92h0Zm-99.954,16.85-5.114-6.82v6.7h-1.3v-9.32h0.538l4.991,6.45v-6.45h1.3v9.44h-0.418Zm10.814-8.31v2.59h3.21v1.09h-3.21v3.37h4.51V5838h-5.88v-9.32h5.88v1.13h-4.51Zm16.68,0V5838h-1.37v-8.19h-3.16v-1.13h7.84v1.13h-3.31Zm19.09,8.31h-0.44l-2.36-6.42-2.21,6.42h-0.44l-3.14-9.44h1.42l2,6.5,2.19-6.5h0.46l2.17,6.5,2.04-6.5h1.42l-3.11,9.44h0Zm12.77-7.47a2.2,2.2,0,0,1,1.93-.96q2.865,0,2.87,3.58a4.529,4.529,0,0,1-.74,2.76,2.47,2.47,0,0,1-2.13.98,2.126,2.126,0,0,1-1.91-1.07,4.9,4.9,0,0,1-.68-2.67A4.555,4.555,0,0,1,1053.51,5830.65Zm-1.01,6.13a3.513,3.513,0,0,0,2.94,1.37,3.941,3.941,0,0,0,3.18-1.3,5.355,5.355,0,0,0,1.11-3.59,5.05,5.05,0,0,0-1.11-3.48,4.007,4.007,0,0,0-3.18-1.25,3.571,3.571,0,0,0-2.93,1.35,5.265,5.265,0,0,0-1.08,3.38,5.491,5.491,0,0,0,1.07,3.52h0Zm18-7.02a4.024,4.024,0,0,1,1.9.34,1.2,1.2,0,0,1,.59,1.12,1.452,1.452,0,0,1-.55,1.32,3.32,3.32,0,0,1-1.79.37,7.733,7.733,0,0,1-.96-0.06v-3.03q0.6-.06.81-0.06h0Zm4.85,8.24-2.89-4.3a2.57,2.57,0,0,0,1.96-2.45c0-1.78-1.21-2.67-3.6-2.67-0.3,0-.78.01-1.44,0.05s-1.01.04-1.06,0.04V5838h1.37v-4.07q0.99,0.06,1.44.06l2.65,4.01h1.57Zm13.5,0-2.81-4.29-1.32,1.77V5838h-1.37v-9.32h1.37v5.06l3.69-5.06h1.52l-2.98,4.04,3.4,5.28h-1.5Zm9.02-.44,0.5-1.17a3.7,3.7,0,0,0,1.97.62,1.942,1.942,0,0,0,1.28-.4,1.318,1.318,0,0,0,.48-1.04,1.494,1.494,0,0,0-.27-0.87,3.3,3.3,0,0,0-1.35-.89l-0.8-.35a3.066,3.066,0,0,1-1.43-1.05,2.61,2.61,0,0,1-.4-1.47,2.2,2.2,0,0,1,.78-1.73,3.018,3.018,0,0,1,2.03-.68,3.928,3.928,0,0,1,2.3.5l-0.4,1.11a3.976,3.976,0,0,0-1.86-.53,1.517,1.517,0,0,0-1.09.37,1.177,1.177,0,0,0-.39.94,1.413,1.413,0,0,0,.53,1.14,5.833,5.833,0,0,0,1.04.55l0.82,0.36a3.209,3.209,0,0,1,1.43,1.08,2.865,2.865,0,0,1,.41,1.59,2.221,2.221,0,0,1-.9,1.78,3.774,3.774,0,0,1-2.42.73A4.178,4.178,0,0,1,1097.87,5837.56Zm9.15-26.83v2.03h-0.31v-2.03H1106v-0.28h1.76v0.28h-0.74Zm2.69,2.03-0.27-1.49-0.49,1.52h-0.08l-0.5-1.52-0.26,1.49h-0.29l0.42-2.31h0.14l0.53,1.68,0.5-1.68h0.14l0.45,2.31h-0.29Zm-4.7,38.73,0.11-.29a0.7,0.7,0,0,0,.21.11,0.852,0.852,0,0,0,.23.04,0.419,0.419,0,0,0,.28-0.1,0.314,0.314,0,0,0,.11-0.26,0.456,0.456,0,0,0-.06-0.22,0.82,0.82,0,0,0-.3-0.21l-0.18-.09a0.717,0.717,0,0,1-.32-0.26,0.768,0.768,0,0,1-.09-0.36,0.58,0.58,0,0,1,.17-0.43,0.616,0.616,0,0,1,.46-0.17,0.845,0.845,0,0,1,.52.12l-0.09.27a1.084,1.084,0,0,0-.19-0.08,0.587,0.587,0,0,0-.23-0.04,0.338,0.338,0,0,0-.25.09,0.317,0.317,0,0,0-.09.23,0.758,0.758,0,0,0,.03.16,0.642,0.642,0,0,0,.1.13,1.2,1.2,0,0,0,.23.13l0.18,0.09a0.7,0.7,0,0,1,.33.27,0.891,0.891,0,0,1,.09.39,0.571,0.571,0,0,1-.2.44,0.763,0.763,0,0,1-.55.18,0.81,0.81,0,0,1-.5-0.14h0Zm3.29,0.11-0.27-1.48-0.49,1.51h-0.07l-0.51-1.51-0.26,1.48h-0.29l0.42-2.31h0.14l0.54,1.68,0.49-1.68h0.14l0.45,2.31h-0.29Zm-96.31-1.81a1.364,1.364,0,0,1,1.2-.82,1.037,1.037,0,0,1,1.06,1.26,3.432,3.432,0,0,1-.48,1.84,1.468,1.468,0,0,1-1.29.77,0.8,0.8,0,0,1-.71-0.37,1.827,1.827,0,0,1-.24-1,3.324,3.324,0,0,1,.46-1.68h0Zm-0.75,3.13a1.354,1.354,0,0,0,1.13.53,2.2,2.2,0,0,0,1.88-.93,3.858,3.858,0,0,0,.68-2.36,1.852,1.852,0,0,0-.43-1.33,1.644,1.644,0,0,0-1.26-.47,2.059,2.059,0,0,0-1.74.95,3.787,3.787,0,0,0-.67,2.25,2.1,2.1,0,0,0,.41,1.36h0Zm5.04-2.24a0.953,0.953,0,0,1,.35-0.28,0.94,0.94,0,0,1,.44-0.13,0.868,0.868,0,0,1,.65.22,0.891,0.891,0,0,1,.21.65,2,2,0,0,1-.37,1.29,1.218,1.218,0,0,1-1.04.47,0.863,0.863,0,0,1-.34-0.07,0.473,0.473,0,0,1-.24-0.18l0.34-1.97h0Zm-0.12,2.69a1.583,1.583,0,0,0,.44.08,1.736,1.736,0,0,0,1.44-.69,2.638,2.638,0,0,0,.55-1.71,1.386,1.386,0,0,0-.32-0.99,1.319,1.319,0,0,0-.98-0.33,1.213,1.213,0,0,0-.53.13,1.09,1.09,0,0,0-.44.33,4.282,4.282,0,0,0-.06-0.46l-0.62.12a2.626,2.626,0,0,1,.05.49,2.921,2.921,0,0,1-.05.5l-0.68,3.95h0.62l0.27-1.61a0.5,0.5,0,0,0,.31.19h0Zm3.69-3.09h-0.4l0.1-.5h0.4l0.14-.75,0.72-.28-0.23,1.03h0.95l-0.1.5h-0.97l-0.36,1.77a1.242,1.242,0,0,0-.04.33,0.438,0.438,0,0,0,.49.5,1.3,1.3,0,0,0,.52-0.12l-0.02.56a2.6,2.6,0,0,1-.86.1,0.712,0.712,0,0,1-.58-0.24,0.914,0.914,0,0,1-.21-0.64,1.115,1.115,0,0,1,.03-0.23Zm3.26-1.92a0.434,0.434,0,0,1,.3.13,0.463,0.463,0,0,1,.13.32,0.457,0.457,0,0,1-.13.31,0.434,0.434,0,0,1-.3.13,0.439,0.439,0,0,1-.31-0.13,0.416,0.416,0,0,1-.13-0.31,0.422,0.422,0,0,1,.13-0.32A0.439,0.439,0,0,1,1023.11,5848.36Zm-0.99,5,0.52-3.05h-0.46l0.11-.53h1.07l-0.62,3.58h-0.62Zm4.68-3.48-0.11.54a1.024,1.024,0,0,0-.63-0.18,1.155,1.155,0,0,0-.97.49,1.887,1.887,0,0,0-.37,1.2,0.966,0.966,0,0,0,.24.69,0.733,0.733,0,0,0,.54.26,1.572,1.572,0,0,0,.91-0.3l-0.07.65a2.2,2.2,0,0,1-.94.19,1.281,1.281,0,0,1-.99-0.38,1.437,1.437,0,0,1-.34-1.01,2.518,2.518,0,0,1,.55-1.68,1.73,1.73,0,0,1,1.39-.65,1.467,1.467,0,0,1,.79.18h0Zm2.57,1.8a2.038,2.038,0,0,1-.39.88,0.8,0.8,0,0,1-.61.34,0.594,0.594,0,0,1-.62-0.71,2.439,2.439,0,0,1,.39-1.41,1.089,1.089,0,0,1,.91-0.56,0.778,0.778,0,0,1,.59.14l-0.27,1.32h0Zm-0.25-1.98a1.716,1.716,0,0,0-1.45.76,2.824,2.824,0,0,0-.57,1.75,1.3,1.3,0,0,0,.29.9,1.026,1.026,0,0,0,.8.31,1.7,1.7,0,0,0,.64-0.12,1.131,1.131,0,0,0,.46-0.31,1.269,1.269,0,0,0,.11.37h0.63a2.9,2.9,0,0,1-.16-0.97,1.416,1.416,0,0,1,.03-0.31l0.43-2.09A2.01,2.01,0,0,0,1029.12,5849.7Zm2.96,3.26-0.08.46c-0.7,0-1.05-.26-1.05-0.8a8.087,8.087,0,0,1,.17-1.07l0.62-3.25h0.64l-0.59,3.06a9.092,9.092,0,0,0-.18,1.19,0.394,0.394,0,0,0,.47.41h0Zm5.04,0.4,0.36-2.09a2.128,2.128,0,0,0,.05-0.46,0.5,0.5,0,0,0-.57-0.57,1.347,1.347,0,0,0-.88.45l-0.46,2.67h-0.61l0.46-2.72a2.278,2.278,0,0,0-.06-0.82l0.6-.12c0.06,0.33.09,0.5,0.09,0.53a1.367,1.367,0,0,1,1.15-.53,0.856,0.856,0,0,1,.94,1,2.47,2.47,0,0,1-.04.44l-0.37,2.22h-0.66Zm3.64-3.12c0.37,0,.55.14,0.55,0.41a0.513,0.513,0,0,1-.32.49,1.638,1.638,0,0,1-.82.17,1.307,1.307,0,0,1-.58-0.11A1.212,1.212,0,0,1,1040.76,5850.24Zm-0.49,1.61a2.052,2.052,0,0,0,1.18-.34,1.067,1.067,0,0,0,.47-0.93,0.767,0.767,0,0,0-.3-0.65,1.384,1.384,0,0,0-.83-0.23,1.832,1.832,0,0,0-1.42.63,2.19,2.19,0,0,0-.57,1.54,1.29,1.29,0,0,0,1.35,1.55,2.916,2.916,0,0,0,.93-0.18l0.06-.65a1.3,1.3,0,0,1-.77.29,0.925,0.925,0,0,1-.68-0.24,0.9,0.9,0,0,1-.24-0.67,1.709,1.709,0,0,1,.03-0.31,1.619,1.619,0,0,0,.79.19h0Zm2.88-1.57h-0.39l0.1-.5h0.4l0.14-.75,0.71-.28-0.23,1.03h0.96l-0.11.5h-0.96l-0.36,1.77a1.242,1.242,0,0,0-.04.33,0.438,0.438,0,0,0,.49.5,1.341,1.341,0,0,0,.52-0.12l-0.02.56a2.632,2.632,0,0,1-.87.1,0.74,0.74,0,0,1-.58-0.24,0.961,0.961,0,0,1-.2-0.64,1.115,1.115,0,0,1,.03-0.23l0.41-2.03h0Zm5.2,3.14h-0.16l-0.64-2.33-1.39,2.33H1046l-0.65-3.66h0.63l0.38,2.28,1.29-2.28h0.16l0.62,2.29,1.1-2.29h0.64C1049.44,5851.23,1048.84,5852.44,1048.35,5853.42Zm2.67-2.22a1.664,1.664,0,0,1,.41-0.71,0.931,0.931,0,0,1,.66-0.27,0.711,0.711,0,0,1,.74.86,2.4,2.4,0,0,1-.33,1.27,0.97,0.97,0,0,1-.87.56,0.743,0.743,0,0,1-.74-0.91A2.962,2.962,0,0,1,1051.02,5851.2Zm-0.44,1.86a1.237,1.237,0,0,0,.96.36,1.674,1.674,0,0,0,1.09-.37,2.018,2.018,0,0,0,.65-0.92,3.029,3.029,0,0,0,.2-1.07,1.4,1.4,0,0,0-.34-1.01,1.269,1.269,0,0,0-.96-0.35,1.7,1.7,0,0,0-1.39.69,2.521,2.521,0,0,0-.54,1.65,1.472,1.472,0,0,0,.33,1.02h0Zm5.79-2.66a0.755,0.755,0,0,0-.46-0.16,0.879,0.879,0,0,0-.63.32,1.389,1.389,0,0,0-.38.74l-0.36,2.06h-0.62l0.62-3.58h0.62l-0.11.56a1.34,1.34,0,0,1,1.14-.64,2.638,2.638,0,0,1,.36.05Zm1.55,1.38-0.25.22-0.22,1.36h-0.62l0.82-5.06h0.6l-0.44,2.94a14.041,14.041,0,0,0,1.49-1.59l0.42,0.39c-0.42.48-.87,0.94-1.32,1.39l1.31,1.93h-0.74l-1.05-1.58h0Zm2.02,1.36,0.32-.6a1.242,1.242,0,0,0,.37.23,1.009,1.009,0,0,0,.4.11,0.682,0.682,0,0,0,.48-0.16,0.531,0.531,0,0,0,.19-0.44,0.364,0.364,0,0,0-.1-0.25,1.655,1.655,0,0,0-.34-0.25l-0.46-.26a0.864,0.864,0,0,1-.32-0.31,0.91,0.91,0,0,1-.1-0.4,0.979,0.979,0,0,1,.37-0.81,1.461,1.461,0,0,1,.93-0.3,2.235,2.235,0,0,1,.92.25l-0.28.59a0.978,0.978,0,0,0-.68-0.3,0.749,0.749,0,0,0-.43.13,0.408,0.408,0,0,0-.17.34,0.354,0.354,0,0,0,.1.26,1.215,1.215,0,0,0,.35.25l0.45,0.25a0.864,0.864,0,0,1,.32.31,0.792,0.792,0,0,1,.1.4,1.128,1.128,0,0,1-.4.91,1.609,1.609,0,0,1-1.03.33,1.762,1.762,0,0,1-.99-0.28h0Zm9.05,0.22,0.39-2.27a2.462,2.462,0,0,0,.02-0.26,0.517,0.517,0,0,0-.58-0.59,0.844,0.844,0,0,0-.43.14,0.82,0.82,0,0,0-.32.32l-0.46,2.66h-0.64l0.44-2.55a0.41,0.41,0,0,0,.01-0.11c0-.3-0.2-0.46-0.61-0.46a0.767,0.767,0,0,0-.41.15,1.217,1.217,0,0,0-.35.32l-0.45,2.65h-0.64l0.46-2.62a2.634,2.634,0,0,0,.01-0.31,2.572,2.572,0,0,0-.05-0.61l0.59-.12a2.142,2.142,0,0,1,.07.47,0.887,0.887,0,0,1,.43-0.34,1.514,1.514,0,0,1,.63-0.13,0.94,0.94,0,0,1,.96.48,1.073,1.073,0,0,1,.45-0.34,1.5,1.5,0,0,1,.6-0.14,0.835,0.835,0,0,1,.95.94,1.816,1.816,0,0,1-.03.32l-0.41,2.4h-0.63Zm3.82-1.68a1.927,1.927,0,0,1-.39.88,0.787,0.787,0,0,1-.6.34,0.59,0.59,0,0,1-.62-0.71,2.439,2.439,0,0,1,.39-1.41,1.087,1.087,0,0,1,.9-0.56,0.792,0.792,0,0,1,.6.14l-0.28,1.32h0Zm-0.24-1.98a1.734,1.734,0,0,0-1.46.76,2.878,2.878,0,0,0-.56,1.75,1.251,1.251,0,0,0,.29.9,1.011,1.011,0,0,0,.8.31,1.771,1.771,0,0,0,.64-0.12,1.03,1.03,0,0,0,.45-0.31,1.688,1.688,0,0,0,.11.37h0.64a2.9,2.9,0,0,1-.16-0.97,2.689,2.689,0,0,1,.02-0.31l0.43-2.09a1.955,1.955,0,0,0-1.2-.29h0Zm4.06,1.97a1.774,1.774,0,0,1-.39.89,0.854,0.854,0,0,1-.63.35,0.767,0.767,0,0,1-.76-0.95,1.941,1.941,0,0,1,.38-1.23,1.161,1.161,0,0,1,.95-0.48,0.579,0.579,0,0,1,.28.09,0.751,0.751,0,0,1,.22.25,0.5,0.5,0,0,1,.09.18l-0.14.9h0Zm0.33,1.69,0.84-5.06h-0.6l-0.32,1.83a0.846,0.846,0,0,0-.75-0.42,1.752,1.752,0,0,0-1.4.67,2.661,2.661,0,0,0-.54,1.72,1.39,1.39,0,0,0,.32.96,1.1,1.1,0,0,0,.88.36,1.251,1.251,0,0,0,1.03-.47l-0.07.41h0.61Zm3.04-3.12c0.37,0,.56.14,0.56,0.41a0.522,0.522,0,0,1-.33.49,1.663,1.663,0,0,1-.82.17,1.278,1.278,0,0,1-.58-0.11,1.2,1.2,0,0,1,1.17-.96h0Zm-0.49,1.61a2.052,2.052,0,0,0,1.18-.34,1.088,1.088,0,0,0,.48-0.93,0.75,0.75,0,0,0-.31-0.65,1.384,1.384,0,0,0-.83-0.23,1.832,1.832,0,0,0-1.42.63,2.19,2.19,0,0,0-.57,1.54,1.293,1.293,0,0,0,1.36,1.55,2.911,2.911,0,0,0,.92-0.18l0.06-.65a1.322,1.322,0,0,1-.77.29,0.925,0.925,0,0,1-.68-0.24,0.9,0.9,0,0,1-.24-0.67,1.709,1.709,0,0,1,.03-0.31,1.619,1.619,0,0,0,.79.19h0Zm3.94,1.29,0.32-.6a1.177,1.177,0,0,0,.36.23,1.094,1.094,0,0,0,.41.11,0.715,0.715,0,0,0,.48-0.16,0.531,0.531,0,0,0,.19-0.44,0.4,0.4,0,0,0-.1-0.25,1.655,1.655,0,0,0-.34-0.25l-0.46-.26a0.864,0.864,0,0,1-.32-0.31,0.792,0.792,0,0,1-.1-0.4,0.979,0.979,0,0,1,.37-0.81,1.442,1.442,0,0,1,.93-0.3,2.159,2.159,0,0,1,.91.25l-0.27.59a1,1,0,0,0-.69-0.3,0.718,0.718,0,0,0-.42.13,0.41,0.41,0,0,0-.11.56l0.04,0.04a1.086,1.086,0,0,0,.35.25l0.45,0.25a0.864,0.864,0,0,1,.32.31,0.877,0.877,0,0,1,.1.4,1.136,1.136,0,0,1-.41.91,1.571,1.571,0,0,1-1.03.33,1.753,1.753,0,0,1-.98-0.28h0Zm4.18-4.78a0.446,0.446,0,0,1,0,.89,0.439,0.439,0,0,1-.31-0.13,0.416,0.416,0,0,1-.13-0.31,0.422,0.422,0,0,1,.13-0.32A0.439,0.439,0,0,1,1087.63,5848.36Zm-0.99,5,0.52-3.05h-0.46l0.11-.53h1.07l-0.62,3.58h-0.62Zm5.89,0,0.39-2.27a1.222,1.222,0,0,0,.03-0.26,0.521,0.521,0,0,0-.58-0.59,0.815,0.815,0,0,0-.43.14,0.785,0.785,0,0,0-.33.32l-0.46,2.66h-0.64l0.45-2.55c0-.04.01-0.07,0.01-0.11,0-.3-0.21-0.46-0.62-0.46a0.8,0.8,0,0,0-.41.15,1.17,1.17,0,0,0-.34.32l-0.45,2.65h-0.65l0.46-2.62a2.279,2.279,0,0,0,.02-0.31,2.5,2.5,0,0,0-.06-0.61l0.6-.12a2.977,2.977,0,0,1,.07.47,0.843,0.843,0,0,1,.43-0.34,1.5,1.5,0,0,1,.62-0.13,0.932,0.932,0,0,1,.96.48,1.073,1.073,0,0,1,.45-0.34,1.542,1.542,0,0,1,.61-0.14,0.828,0.828,0,0,1,.94.94c0,0.1-.01.21-0.02,0.32l-0.42,2.4h-0.63Zm2.62-2.68a1,1,0,0,1,.36-0.28,0.906,0.906,0,0,1,.43-0.13,0.774,0.774,0,0,1,.87.87,2,2,0,0,1-.37,1.29,1.237,1.237,0,0,1-1.05.47,0.852,0.852,0,0,1-.33-0.07,0.473,0.473,0,0,1-.24-0.18l0.33-1.97h0Zm-0.11,2.69a1.583,1.583,0,0,0,.44.08,1.749,1.749,0,0,0,1.44-.69,2.638,2.638,0,0,0,.55-1.71,1.345,1.345,0,0,0-.33-0.99,1.294,1.294,0,0,0-.97-0.33,1.254,1.254,0,0,0-.54.13,1.09,1.09,0,0,0-.44.33c-0.01-.16-0.03-0.31-0.05-0.46l-0.62.12a2.626,2.626,0,0,1,.05.49,2.921,2.921,0,0,1-.05.5l-0.69,3.95h0.63l0.27-1.61a0.472,0.472,0,0,0,.31.19h0Zm4.24-.41-0.08.46c-0.7,0-1.05-.26-1.05-0.8a8.087,8.087,0,0,1,.17-1.07l0.62-3.25h0.64l-0.59,3.06a9.092,9.092,0,0,0-.18,1.19,0.394,0.394,0,0,0,.47.41h0Zm2.9-2.72c0.37,0,.55.14,0.55,0.41a0.513,0.513,0,0,1-.32.49,1.663,1.663,0,0,1-.82.17,1.279,1.279,0,0,1-.58-0.11A1.2,1.2,0,0,1,1102.18,5850.24Zm-0.49,1.61a2.02,2.02,0,0,0,1.17-.34,1.088,1.088,0,0,0,.48-0.93,0.75,0.75,0,0,0-.31-0.65,1.352,1.352,0,0,0-.82-0.23,1.817,1.817,0,0,0-1.42.63,2.19,2.19,0,0,0-.57,1.54,1.29,1.29,0,0,0,1.35,1.55,2.813,2.813,0,0,0,.92-0.18l0.07-.65a1.325,1.325,0,0,1-.78.29,0.916,0.916,0,0,1-.67-0.24,0.9,0.9,0,0,1-.24-0.67,1.709,1.709,0,0,1,.03-0.31,1.591,1.591,0,0,0,.79.19h0Z" transform="translate(-971 -5780)"/>
  <path id="_1" data-name="1" class="cls-2" d="M1010.37,5788.68c-3.09,1.49-7.34.11-10.486,1.6-1.15.21-2.2-.37-3.3,0l1.3,0.91-0.6.37,0.25,0.27c-3-1.76-9.292-.27-13.788-1.28l-0.25.37c0,8.52-.75,16.73-1.548,24.93-0.4-.11-0.1-1.33-0.551-1.65-1.249,4.21,1.55,7.46.551,11.66,0.349,1.23,1.548-.21,1.9.8,1.2,5.81-2.947,10.23-1.151,15.82-0.5.59-.748,2.58-0.947,3.44,0.8,0.37,1.848.21,2.7,0.64-0.248.42-1.4,0.53-1.3,1.49l-1.4.9,0.6,0.59c1.851,0.59,4.1.59,5.5,1.65-0.348.85-1.7,0.42-2.447,0.91,0.448,0.48,1.9.37,1.649,1.59-0.5.59-1.3,1.55-.451,2.29a10.1,10.1,0,0,1-4.247-.9v-0.11c1.05-.53,2.248.48,3.148-0.37a6.13,6.13,0,0,0-6.241.37c-0.151,1.28,2.646.91,0.946,1.87a4.027,4.027,0,0,1-1.4.16l-0.149-.56c-1.4-2.56-5.045-.4-5.3-3.86,0.6-6.56-2.149-13.77-.8-20.54,0-2.93-.749-6.5,1.051-8.79,0.748-5.96.351-12.41,0.1-18.37l0.7,0.26c0.751-.8.2-2.02,0-2.87-0.447-.38-1.3-0.32-1.4-1.02,0.449-2.82-1.4-4.9-.6-7.83,0.4-1.81.248-3.83,0.6-5.64,0.348,0,.749.53,0.849-0.11l-0.251-2.02c-0.72-1.64,2.85-3.84,4.5-5.65,0,0.27-.4.32-0.252,0.64,8.441,0,16.585,1.44,24.978.74,4.85,0.06,9.74.32,14.53,0.27a4.422,4.422,0,0,1,1.5.96c0.08,1.55.09,3.1,0.04,4.64l-0.14.89c-0.22.85-1.71,2.77-1.99,3.58l-0.75.8c0.6,0.37,2.15-.42,2.25,1.01a5.507,5.507,0,0,1,0,3.36c-1.7,1.12-2.43,3.86-2.23,5.72,0.35,0,.18-1.14.48-1.19,1,0.79,1.05,2.6.8,4.04l-0.35-.66a1.872,1.872,0,0,1-1.15-.72c-2,1.86-.15,2.6-1.38,3.24-0.7-1.49-.25-2.54-1.02-2.39l-0.59,4c-1.11,0-1.06-1.31-1.36-1.74-0.98-2.28-.45-2.79-0.85-5.51,1.35-1.86.8-4.79,0.95-7.3-0.19-1.76-.3-3.56-0.44-5.35l-0.76-.35h0Zm-38.757,5.65h-0.5a7.843,7.843,0,0,1,.149-3.41,10.861,10.861,0,0,1,.353,3.41h0Zm49.407,1.65c-0.21.69,0.04,1.86-.95,1.97-0.55-1.33-.41-2.98-0.6-4.53C1020.71,5793.26,1020.52,5795.13,1021.02,5795.98Zm-48.883,20.63c0.3,1.75-.1,3.78.749,5.27-0.2.48-.051,1.07-0.6,1.39a0.46,0.46,0,0,1-.6-0.38v-5.91A0.98,0.98,0,0,1,972.137,5816.61Zm0.441,29.43a44.741,44.741,0,0,1-.349,6.92c-1.7-1.06-.65-3.94-0.7-5.8l0.6-1.76,0.448,0.64h0Zm34.152-.66c-1.05,1.23-2.9,1.34-4.6,1.39-3.993.21-8.688-.48-12.485,0.64a12,12,0,0,1-3.646-.75l0.6-.64c4.847-1.54,10.241-.48,15.184-1.86,1.75,0.21,4-.69,4.95,1.22h0Zm3.3,1.39c-0.4.69-1.66,0.58-2.45,0.43l-0.15-.16C1007.73,5845.92,1009.37,5846.18,1010.03,5846.77Z" transform="translate(-971 -5780)"/>
</svg>
