<svg id="ui_confirm" xmlns="http://www.w3.org/2000/svg" width="104" height="104" viewBox="0 0 104 104">
  <defs>
    <style>
      .cls-1 {
        fill: #fff;
        fill-rule: evenodd;
      }
    </style>
  </defs>
  <path id="_2" data-name="2" class="cls-1" d="M549,206a52,52,0,1,0,52-52A52.059,52.059,0,0,0,549,206Zm4.522,0A47.478,47.478,0,1,1,601,253.478,47.53,47.53,0,0,1,553.522,206Z" transform="translate(-549 -154)"/>
  <path id="_1" data-name="1" class="cls-1" d="M597.039,225.371L575.3,207.609a2.262,2.262,0,1,0-2.862,3.5l23.558,19.245a2.288,2.288,0,0,0,1.434.511c0.09,0,.181,0,0.271-0.013a2.291,2.291,0,0,0,1.537-.882l30.7-40.7a2.263,2.263,0,0,0-3.613-2.726Z" transform="translate(-549 -154)"/>
</svg>
