<svg xmlns="http://www.w3.org/2000/svg" width="22" height="22" viewBox="0 0 22 22">
  <defs>
    <style>
      .cls-1 {
        fill: #fff;
        fill-rule: evenodd;
      }
    </style>
  </defs>
  <path id="icon1" class="cls-1" d="M855,238.365l-0.549-2.191a3.128,3.128,0,0,0-2.106-2.283l-4.028-1.369c-1.007-.365-1.465-2.009-1.556-2.557a3.772,3.772,0,0,0,1.373-2.465,0.7,0.7,0,0,1,.091-0.457,0.242,0.242,0,0,0,.275-0.274,5.855,5.855,0,0,0,.458-2.009v-0.091a1.4,1.4,0,0,0-.458-0.639v-2.465a2.844,2.844,0,0,0-.915-2.466c0-.639-0.733-2.1-3.571-2.1a4.757,4.757,0,0,0-4.577,4.566v2.465a1.058,1.058,0,0,0-.458.639v0.091a11.2,11.2,0,0,0,.458,2.009,0.758,0.758,0,0,0,.275.274,0.428,0.428,0,0,1,.183.457,3.574,3.574,0,0,0,1.373,2.465c-0.092.639-.549,2.192-1.465,2.557l-4.028,1.369a3.306,3.306,0,0,0-2.106,2.283l-0.64,2.191a0.467,0.467,0,0,0,.915.183l0.549-2.191a2.4,2.4,0,0,1,1.465-1.644l4.12-1.278c1.556-.64,2.105-3.013,2.105-3.653a0.687,0.687,0,0,0-.183-0.365,2.758,2.758,0,0,1-1.19-1.917,1.534,1.534,0,0,0-.549-1.278,5.974,5.974,0,0,1-.366-1.371V224.76a0.431,0.431,0,0,0,.457-0.456v-2.739a3.919,3.919,0,0,1,3.662-3.653c2.106,0,2.655.913,2.747,1.279v0.182a0.493,0.493,0,0,0,.366.457c0.091,0.091.549,0.365,0.549,1.735V224.3a0.417,0.417,0,0,0,.366.456,0.089,0.089,0,0,0,.092.091,6.843,6.843,0,0,1-.366,1.462,1.407,1.407,0,0,0-.55,1.278,3.11,3.11,0,0,1-1.19,1.917,0.31,0.31,0,0,0-.183.274c0,0.548.55,2.922,2.106,3.653l4.028,1.369a2.234,2.234,0,0,1,1.465,1.644l0.549,2.192a0.61,0.61,0,0,0,.458.365h0.091a0.6,0.6,0,0,0,.458-0.64h0Z" transform="translate(-833 -217)"/>
</svg>
