<svg xmlns="http://www.w3.org/2000/svg" width="25.75" height="14.65" viewBox="0 0 25.75 14.65">
  <defs>
    <style>
      .cls-1 {
        fill: #45668e;
        fill-rule: evenodd;
      }
    </style>
  </defs>
  <path id="VK_hover" class="cls-1" d="M1427.63,9210.22s-0.19-.54-1.36-0.39l-3.86.03a0.9,0.9,0,0,0-.51.08,0.816,0.816,0,0,0-.33.41,25.521,25.521,0,0,1-1.43,3.02c-1.72,2.92-2.42,3.08-2.7,2.89-0.65-.41-0.48-1.69-0.48-2.6,0-2.84.43-4.02-.84-4.32a6.646,6.646,0,0,0-1.81-.18,8.451,8.451,0,0,0-3.2.32c-0.45.22-.78,0.7-0.58,0.73a1.788,1.788,0,0,1,1.14.57,4.078,4.078,0,0,1,.39,1.76c0.15,3.33-.54,3.75-0.54,3.75-0.52.28-1.43-.19-2.77-2.95a26.5,26.5,0,0,1-1.38-2.87,0.961,0.961,0,0,0-.32-0.42,1.429,1.429,0,0,0-.59-0.25l-3.67.03a0.963,0.963,0,0,0-.77.26,0.594,0.594,0,0,0-.01.65,35.646,35.646,0,0,0,6.14,10.12s2.98,3.12,6.37,2.9h1.54a1.162,1.162,0,0,0,.71-0.29,0.981,0.981,0,0,0,.2-0.68c-0.02-2.07.94-2.37,0.94-2.37,0.94-.3,2.15,1.99,3.43,2.88a2.855,2.855,0,0,0,1.72.52l3.43-.06a0.939,0.939,0,0,0,.95-1.51,11.625,11.625,0,0,0-2.56-2.96c-2.14-2-1.86-1.67.74-5.13C1427.2,9212.06,1427.83,9210.77,1427.63,9210.22Z" transform="translate(-1401.91 -9209.16)"/>
</svg>
