<svg xmlns="http://www.w3.org/2000/svg" width="20.6" height="20.6" viewBox="0 0 20.6 20.6">
  <defs>
    <style>
      .cls-1 {
        fill: #fff;
        fill-rule: evenodd;
      }
    </style>
  </defs>
  <path id="instagram" class="cls-1" d="M1463.57,9215.32a3.43,3.43,0,1,1-3.43-3.43A3.436,3.436,0,0,1,1463.57,9215.32Zm1.85,0a5.28,5.28,0,1,0-5.28,5.28A5.275,5.275,0,0,0,1465.42,9215.32Zm1.45-5.49a1.235,1.235,0,1,0-1.24,1.23A1.233,1.233,0,0,0,1466.87,9209.83Zm-6.73-2.95c1.5,0,4.72-.12,6.07.41a3.537,3.537,0,0,1,1.96,1.96c0.53,1.35.41,4.57,0.41,6.07s0.12,4.71-.41,6.07a3.423,3.423,0,0,1-.78,1.18,3.178,3.178,0,0,1-1.18.77c-1.35.54-4.57,0.42-6.07,0.42s-4.72.12-6.07-.42a3.178,3.178,0,0,1-1.18-.77,3.26,3.26,0,0,1-.77-1.18c-0.54-1.36-.42-4.57-0.42-6.07s-0.12-4.72.42-6.07a3.178,3.178,0,0,1,.77-1.18,3.332,3.332,0,0,1,1.18-.78C1455.42,9206.76,1458.64,9206.88,1460.14,9206.88Zm10.29,8.44c0-1.42.01-2.83-.07-4.25a5.692,5.692,0,0,0-5.97-5.97c-1.42-.08-2.83-0.07-4.25-0.07s-2.83-.01-4.25.07a5.692,5.692,0,0,0-5.97,5.97c-0.08,1.42-.07,2.83-0.07,4.25s-0.01,2.82.07,4.25a5.692,5.692,0,0,0,5.97,5.97c1.42,0.08,2.83.07,4.25,0.07s2.83,0.01,4.25-.07a5.692,5.692,0,0,0,5.97-5.97C1470.44,9218.14,1470.43,9216.74,1470.43,9215.32Z" transform="translate(-1449.84 -9205.03)"/>
</svg>
