<svg xmlns="http://www.w3.org/2000/svg" width="19.84" height="24" viewBox="0 0 19.84 24">
  <defs>
    <style>
      .cls-1 {
        fill: #fff;
        fill-rule: evenodd;
      }
    </style>
  </defs>
  <path id="youtube" class="cls-1" d="M1507.01,9219.79c0-.59-0.17-0.9-0.52-0.9a0.864,0.864,0,0,0-.6.3v4.03a0.849,0.849,0,0,0,.6.29c0.35,0,.52-0.29.52-0.89v-2.83Zm4.53,0.01c0-.6-0.2-0.91-0.6-0.91s-0.61.31-.61,0.91v0.62h1.21v-0.62Zm-12.94-2.92v7.63h-1.34v-7.63h-1.41v-1.26h4.18v1.26h-1.43Zm3.86,7.63v-0.73a1.966,1.966,0,0,1-1.37.82,0.735,0.735,0,0,1-.78-0.5,3.55,3.55,0,0,1-.1-0.97v-5.24h1.19v4.87a4.05,4.05,0,0,0,.01.47,0.272,0.272,0,0,0,.28.28,1.062,1.062,0,0,0,.77-0.56v-5.06h1.19v6.62h-1.19Zm5.74-1.99a4.513,4.513,0,0,1-.12,1.34,0.94,0.94,0,0,1-.95.74,1.626,1.626,0,0,1-1.24-.74v0.65h-1.2v-8.89h1.2v2.91a1.624,1.624,0,0,1,1.24-.72,0.929,0.929,0,0,1,.95.75,4.362,4.362,0,0,1,.12,1.32v2.64Zm4.53-.13a7.04,7.04,0,0,1-.02.78,1.614,1.614,0,0,1-.29.72,1.641,1.641,0,0,1-1.44.71,1.722,1.722,0,0,1-1.45-.68,2.587,2.587,0,0,1-.39-1.56v-2.32a2.51,2.51,0,0,1,.38-1.55,1.833,1.833,0,0,1,2.85,0,2.665,2.665,0,0,1,.36,1.55v1.38h-2.4v1.17c0,0.62.21,0.92,0.62,0.92a0.517,0.517,0,0,0,.54-0.48c0.01-.07.02-0.33,0.02-0.82h1.22v0.18Zm-8.14-12.23c0,0.61-.18.93-0.58,0.93s-0.58-.32-0.58-0.93v-2.82c0-.61.19-0.92,0.58-0.92s0.58,0.31.58,0.92v2.82Zm9.63,10.06a20.923,20.923,0,0,0-.35-4.69,2.518,2.518,0,0,0-2.14-1.96,106.293,106.293,0,0,0-14.86,0,2.552,2.552,0,0,0-2.16,1.96,22.164,22.164,0,0,0-.34,4.69h0a21.615,21.615,0,0,0,.34,4.69,2.5,2.5,0,0,0,2.15,1.94,98.853,98.853,0,0,0,14.87,0,2.5,2.5,0,0,0,2.14-1.94A21.62,21.62,0,0,0,1514.22,9220.22Zm-13.37-17.1-0.91,3.53-0.95-3.53h-1.42c0.28,0.83.57,1.68,0.87,2.51a22.3,22.3,0,0,1,.82,2.84v3.63h1.33v-3.63l1.63-5.35h-1.37Zm4.96,4.46a2.524,2.524,0,0,0-.38-1.56,1.637,1.637,0,0,0-1.42-.69,1.656,1.656,0,0,0-1.41.69,2.6,2.6,0,0,0-.37,1.56v2.35a2.71,2.71,0,0,0,.37,1.58,1.648,1.648,0,0,0,1.41.68,1.63,1.63,0,0,0,1.42-.68,2.591,2.591,0,0,0,.38-1.58v-2.35Zm4.48-2.17h-1.21v5.11a1.053,1.053,0,0,1-.77.57,0.281,0.281,0,0,1-.28-0.29,4.05,4.05,0,0,1-.01-0.47v-4.92h-1.22v5.28a3.738,3.738,0,0,0,.1,1.01,0.781,0.781,0,0,0,.8.49,1.913,1.913,0,0,0,1.38-.83v0.74h1.21v-6.69Z" transform="translate(-1494.38 -9203.13)"/>
</svg>
