<svg xmlns="http://www.w3.org/2000/svg" width="14.125" height="14.125" viewBox="0 0 14.125 14.125">
  <defs>
    <style>
      .cls-1 {
        fill: #fff;
        fill-rule: evenodd;
      }
    </style>
  </defs>
  <path id="_" data-name="" class="cls-1" d="M26.387,27.028a0.513,0.513,0,0,0-.03-0.211,1.775,1.775,0,0,0-.763-0.532c-0.572-.321-1.155-0.633-1.717-0.964a2.065,2.065,0,0,0-.893-0.462c-0.613,0-1.506,1.817-2.048,1.817a2.158,2.158,0,0,1-.863-0.392,9.99,9.99,0,0,1-4.107-4.107,2.158,2.158,0,0,1-.392-0.863c0-.542,1.817-1.436,1.817-2.048a2.065,2.065,0,0,0-.462-0.893c-0.331-.562-0.643-1.145-0.964-1.717a1.775,1.775,0,0,0-.532-0.763,0.513,0.513,0,0,0-.211-0.03,4.468,4.468,0,0,0-1.4.311A2.646,2.646,0,0,0,12.762,17.4a3.837,3.837,0,0,0-.512,1.867,7.732,7.732,0,0,0,.693,2.631,9.391,9.391,0,0,0,.833,1.757A16.951,16.951,0,0,0,18.6,28.474a9.391,9.391,0,0,0,1.757.833A7.732,7.732,0,0,0,22.983,30a3.837,3.837,0,0,0,1.867-.512,2.646,2.646,0,0,0,1.225-1.064A4.468,4.468,0,0,0,26.387,27.028Z" transform="translate(-12.25 -15.875)"/>
</svg>
