<svg id="badges_ribbon-1_копия" data-name="badges_ribbon-1 копия" xmlns="http://www.w3.org/2000/svg" width="48" height="72" viewBox="0 0 48 72">
  <defs>
    <style>
      .cls-1 {
        fill: #f05f22;
        fill-rule: evenodd;
      }
    </style>
  </defs>
  <path id="Заливка_цветом_1" data-name="Заливка цветом 1" class="cls-1" d="M657.446,1654.52l1.485,5.49a1.49,1.49,0,0,0,1.064,1.06l0.921,0.25-4.893,25.19a1.5,1.5,0,0,0,2.169,1.62l7-3.67,5.1,6.01a1.52,1.52,0,0,0,1.149.53,1.66,1.66,0,0,0,.381-0.05,1.505,1.505,0,0,0,1.093-1.17l4.376-22.49,3.78,19.49a1.5,1.5,0,0,0,1.092,1.17,1.621,1.621,0,0,0,.378.05,1.5,1.5,0,0,0,1.143-.53l5.1-6.01,7,3.67a1.573,1.573,0,0,0,.7.17h0.06a1.5,1.5,0,0,0,1.335-2.19l-4.271-21.94,0.371-.1a1.511,1.511,0,0,0,1.074-1.06l1.485-5.5,4.011-4.04a1.5,1.5,0,0,0,.387-1.43l-1.557-6.06,1.443-6.06a1.5,1.5,0,0,0-.4-1.41l-4.035-4.03-1.455-5.49a1.513,1.513,0,0,0-1.065-1.07l-5.487-1.45-4-4.03a1.5,1.5,0,0,0-1.432-.4l-5.964,1.5-5.964-1.5a1.492,1.492,0,0,0-1.431.4l-4,4.03-5.487,1.46a1.494,1.494,0,0,0-1.065,1.06l-1.455,5.49-4.035,4.04a1.491,1.491,0,0,0-.4,1.4l1.443,6.06-1.557,6.06a1.515,1.515,0,0,0,.387,1.44Zm9.266,27.08a1.479,1.479,0,0,0-1.143-.53,1.56,1.56,0,0,0-.7.17l-5.3,2.78,4.26-21.93,1.626,0.43,4.035,4.04a1.491,1.491,0,0,0,1.419.39l3.565-.87-3.9,20.06Zm22.414-3.36a1.5,1.5,0,0,0-1.84.36l-3.858,4.54-3.276-16.91,2.934,0.72a1.532,1.532,0,0,0,.363.05,1.215,1.215,0,0,0,.264-0.06,1.434,1.434,0,0,0,.2-0.03,1.54,1.54,0,0,0,.591-0.35l4.039-4.04,2.168-.58,3.714,19.08ZM660,1633.32a1.521,1.521,0,0,0,.39-0.67l1.335-5.04,5.04-1.34a1.528,1.528,0,0,0,.681-0.4l3.687-3.71,5.5,1.38a1.5,1.5,0,0,0,.728,0l5.5-1.38,3.687,3.71a1.528,1.528,0,0,0,.681.4l5.04,1.33,1.335,5.04a1.5,1.5,0,0,0,.39.68l3.726,3.72-1.334,5.61a1.5,1.5,0,0,0,0,.72l1.437,5.6-3.689,3.71a1.5,1.5,0,0,0-.385.67l-1.362,5.03-0.867.23c-0.015.01-.03,0-0.045,0.01l-4.11,1.11a1.563,1.563,0,0,0-.669.38l-3.72,3.72-4.4-1.08h-0.015l-1.221-.3a1.447,1.447,0,0,0-.716,0l-5.626,1.38-3.723-3.72a1.5,1.5,0,0,0-.665-0.38l-3.57-.96h-0.028l-1.421-.38-1.363-5.04a1.568,1.568,0,0,0-.384-0.67l-3.689-3.71,1.436-5.6a1.5,1.5,0,0,0,.006-0.72l-1.335-5.6Z" transform="translate(-653 -1619)"/>
  <path id="Заливка_цветом_2" data-name="Заливка цветом 2" class="cls-1" d="M692,1643a15,15,0,1,0-15,15A15.018,15.018,0,0,0,692,1643Zm-3,0a12,12,0,1,1-12-12A12.011,12.011,0,0,1,689,1643Z" transform="translate(-653 -1619)"/>
</svg>
