<svg xmlns="http://www.w3.org/2000/svg" width="65" height="65" viewBox="0 0 65 65">
  <defs>
    <style>
      .cls-1 {
        fill: #f05f22;
        fill-rule: evenodd;
      }
    </style>
  </defs>
  <path id="finance_pie-chart" class="cls-1" d="M1388.75,1687.07a1.428,1.428,0,0,0,.29.03,32.21,32.21,0,0,0,7.46.9,32.294,32.294,0,0,0,32.05-37.67,1.477,1.477,0,0,0,.01-0.21c-0.02-.07-0.05-0.12-0.07-0.18a32.52,32.52,0,0,0-11.7-19.79c-0.04-.03-0.05-0.07-0.09-0.1s-0.11-.05-0.17-0.09a32.327,32.327,0,0,0-43.55,3.18,1.526,1.526,0,0,0-.16.11,1.223,1.223,0,0,0-.12.19,32.407,32.407,0,0,0,15.87,53.54A1.511,1.511,0,0,0,1388.75,1687.07Zm1.97-2.35,6.88-28.03,28.45-4.78a28.355,28.355,0,0,1,.24,3.59A29.772,29.772,0,0,1,1390.72,1684.72Zm9.03-31.14,16.29-20.52a29.824,29.824,0,0,1,9.58,16.18Zm-3.4-.08-20.59-19.34a29.627,29.627,0,0,1,38.15-2.78Zm-1.36,2.44-6.89,28.12a29.726,29.726,0,0,1-14.19-47.93Z" transform="translate(-1364 -1623)"/>
</svg>
