<svg xmlns="http://www.w3.org/2000/svg" width="44" height="65" viewBox="0 0 44 65">
  <defs>
    <style>
      .cls-1 {
        fill: #f05f22;
        fill-rule: evenodd;
      }
    </style>
  </defs>
  <path id="calendar_sand-clock-2" class="cls-1" d="M1018.61,1681.05a5.89,5.89,0,0,0-3.98,3.05l-1.48,2.94a1.325,1.325,0,0,0,.06,1.32,1.378,1.378,0,0,0,1.16.64h41.25a1.372,1.372,0,0,0,1.38-1.36,1.333,1.333,0,0,0-.35-0.9l-1.34-2.64a5.862,5.862,0,0,0-3.98-3.05l-1.81-16.92a8.8,8.8,0,0,0-8.75-7.63,8.809,8.809,0,0,0,8.75-7.66l1.81-16.9a5.834,5.834,0,0,0,3.98-3.05l1.49-2.93a1.35,1.35,0,0,0-.06-1.32,1.384,1.384,0,0,0-1.17-.64h-41.2a1.355,1.355,0,0,0-1.16.64,1.3,1.3,0,0,0-.06,1.32l1.48,2.94a5.849,5.849,0,0,0,3.98,3.04l1.82,16.92a8.793,8.793,0,0,0,8.75,7.64,8.811,8.811,0,0,0-8.76,7.66Zm2.78-.18,1.25-11.6a17.2,17.2,0,0,0,5.46.77,17.46,17.46,0,0,0,7.38-1.45,14.793,14.793,0,0,1,6.36-1.26,14.111,14.111,0,0,1,5.36.9l1.35,12.64h-27.16Zm31.96,5.42h-36.76l0.5-.97a3.166,3.166,0,0,1,2.84-1.74h30.08a3.175,3.175,0,0,1,2.84,1.73Zm-36.76-59.58h36.76l-0.5.97a3.166,3.166,0,0,1-2.84,1.74h-30.08a3.166,3.166,0,0,1-2.84-1.74Zm14.26,32.5a1.364,1.364,0,0,0,1.37-1.36v-2.71a1.362,1.362,0,0,0-1.37-1.35h-1.67a6.042,6.042,0,0,1-6.02-5.23l-1.77-16.44h27.16l-1.76,16.41a6.058,6.058,0,0,1-6.02,5.26h-1.68a1.362,1.362,0,0,0-1.37,1.35v2.71a1.364,1.364,0,0,0,1.37,1.36h1.68a6.057,6.057,0,0,1,6.02,5.23l0.09,0.84a19.533,19.533,0,0,0-12.42.79,14.793,14.793,0,0,1-6.36,1.26,14.25,14.25,0,0,1-5.17-.81l0.22-2.05a6.06,6.06,0,0,1,6.03-5.26h1.67Z" transform="translate(-1013 -1624)"/>
</svg>
