<svg xmlns="http://www.w3.org/2000/svg" width="76" height="50" viewBox="0 0 76 50">
  <defs>
    <style>
      .cls-1 {
        fill: #f05f22;
        fill-rule: evenodd;
      }
    </style>
  </defs>
  <path id="transport_truck-2" class="cls-1" d="M354.654,1650.46l-12.667-15.63a1.594,1.594,0,0,0-1.238-.58H329.666v-4.69a1.573,1.573,0,0,0-1.584-1.56h-47.5a1.574,1.574,0,0,0-1.584,1.56v31.25a1.574,1.574,0,0,0,1.584,1.56h1.583v7.82a1.573,1.573,0,0,0,1.583,1.56h11.245a7.937,7.937,0,0,0,15.511,0h22.486a7.936,7.936,0,0,0,15.51,0h4.915a1.573,1.573,0,0,0,1.583-1.56v-18.75a1.566,1.566,0,0,0-.114-0.57c-0.025-.06-0.066-0.11-0.1-0.17A1.55,1.55,0,0,0,354.654,1650.46ZM336,1649.87v-12.5h3.99l10.134,12.5H336Zm-9.5-18.75v28.13H282.166v-28.13H326.5ZM298,1670.19a4.751,4.751,0,1,1,4.75,4.68A4.723,4.723,0,0,1,298,1670.19Zm38,0a4.751,4.751,0,1,1,4.75,4.68A4.724,4.724,0,0,1,336,1670.19Zm4.75-7.82a7.9,7.9,0,0,0-7.755,6.25H310.505a7.937,7.937,0,0,0-15.511,0h-9.661v-6.25h42.749a1.573,1.573,0,0,0,1.584-1.56v-23.44h3.167v14.07a1.573,1.573,0,0,0,1.583,1.56h17.417v15.62h-3.328A7.905,7.905,0,0,0,340.749,1662.37Z" transform="translate(-279 -1628)"/>
</svg>
