<svg xmlns="http://www.w3.org/2000/svg" width="45" height="68" viewBox="0 0 45 68">
  <defs>
    <style>
      .cls-1 {
        fill: #f05f22;
        fill-rule: evenodd;
      }
    </style>
  </defs>
  <path id="badges_medal-sign" class="cls-1" d="M1014,1864.92a1.408,1.408,0,0,0,1.41,1.41h15.46a5.691,5.691,0,0,0,3.55,5.26l-4.49,8.88-11.91,1.7a1.391,1.391,0,0,0-1.14.97,1.413,1.413,0,0,0,.37,1.46l8.6,8.19-2.03,11.55a1.4,1.4,0,0,0,2.02,1.5l10.66-5.47,10.66,5.48a1.432,1.432,0,0,0,.64.15,1.37,1.37,0,0,0,.84-0.28,1.4,1.4,0,0,0,.54-1.38l-2.02-11.55,8.59-8.19a1.413,1.413,0,0,0,.37-1.46,1.391,1.391,0,0,0-1.14-.97l-11.9-1.7-4.49-8.89a5.664,5.664,0,0,0,3.53-5.25h15.47a1.415,1.415,0,0,0,0-2.83h-1.4v-22.67h1.4a1.415,1.415,0,0,0,0-2.83h-42.18a1.415,1.415,0,0,0,0,2.83h1.4v22.67h-1.4A1.411,1.411,0,0,0,1014,1864.92Zm14.06-24.09h16.88v22.67h-16.88v-22.67Zm23.63,43.73-7.02,6.69a1.4,1.4,0,0,0-.41,1.27l1.66,9.51-8.78-4.52a1.44,1.44,0,0,0-1.28,0l-8.78,4.52,1.66-9.5a1.443,1.443,0,0,0-.41-1.28l-7.02-6.69,9.74-1.38a1.383,1.383,0,0,0,1.05-.76l4.4-8.71,4.4,8.71a1.406,1.406,0,0,0,1.05.76Zm-18-18.23h5.62A2.81,2.81,0,1,1,1033.69,1866.33Zm14.06-2.83v-22.67h5.63v22.67h-5.63Zm-22.5-22.67v22.67h-5.63v-22.67h5.63Z" transform="translate(-1014 -1838)"/>
</svg>
