<svg id="ecommerce_shield-confirm" xmlns="http://www.w3.org/2000/svg" width="58" height="68" viewBox="0 0 58 68">
  <defs>
    <style>
      .cls-1 {
        fill: #f05f22;
        fill-rule: evenodd;
      }
    </style>
  </defs>
  <path id="_2" data-name="2" class="cls-1" d="M1370.78,1843.81a1.4,1.4,0,0,0-.78,1.27v24.97c0,15.43,10.93,29.17,28.52,35.86a1.325,1.325,0,0,0,.96,0c17.59-6.69,28.52-20.44,28.52-35.86v-24.97a1.4,1.4,0,0,0-.78-1.27c-7.57-3.75-17.59-5.81-28.22-5.81S1378.35,1840.06,1370.78,1843.81Zm28.22,59.26c-16.2-6.34-26.24-18.95-26.24-33.02v-24.07c7.11-3.32,16.38-5.15,26.24-5.15s19.13,1.83,26.24,5.15v24.07C1425.24,1884.12,1415.2,1896.73,1399,1903.07Z" transform="translate(-1370 -1838)"/>
  <path id="_1" data-name="1" class="cls-1" d="M1381.51,1867.95a1.439,1.439,0,0,0-.11,2l11.17,12.91a1.389,1.389,0,0,0,1.04.47h0a1.344,1.344,0,0,0,1.03-.48l21.97-25.5a1.45,1.45,0,0,0-.12-2,1.362,1.362,0,0,0-1.95.13l-20.94,24.3-10.14-11.71A1.353,1.353,0,0,0,1381.51,1867.95Z" transform="translate(-1370 -1838)"/>
</svg>
