<svg id="building_home-confirm-2" xmlns="http://www.w3.org/2000/svg" width="67" height="65" viewBox="0 0 67 65">
  <defs>
    <style>
      .cls-1 {
        fill: #f05f22;
        fill-rule: evenodd;
      }
    </style>
  </defs>
  <path id="Заливка_цветом_1" data-name="Заливка цветом 1" class="cls-1" d="M315.352,1888.29l-12.368-9.75a1.377,1.377,0,0,0-1.955.25,1.418,1.418,0,0,0,.245,1.98l13.47,10.62a1.355,1.355,0,0,0,.857.3,1.028,1.028,0,0,0,.175-0.01,1.382,1.382,0,0,0,.926-0.54l17.214-22.62a1.422,1.422,0,0,0-.251-1.98,1.387,1.387,0,0,0-1.955.26Z" transform="translate(-284 -1838)"/>
  <path id="Заливка_цветом_2" data-name="Заливка цветом 2" class="cls-1" d="M339.788,1857.18v-9.31a1.4,1.4,0,0,0-1.4-1.41h-8.368a1.4,1.4,0,0,0-1.322.96l-10.316-9.1a1.386,1.386,0,0,0-1.83,0l-32.078,28.27a1.433,1.433,0,0,0-.393,1.56,1.387,1.387,0,0,0,1.308.92h4.184v32.51a1.4,1.4,0,0,0,1.4,1.42h53a1.4,1.4,0,0,0,1.4-1.42v-32.51h4.184a0.1,0.1,0,0,0,.055,0,1.4,1.4,0,0,0,1.395-1.41,1.419,1.419,0,0,0-.745-1.25Zm2.789,10.48v32.51H292.368v-32.51a1.4,1.4,0,0,0-1.395-1.41h-1.85l28.349-24.99,11.638,10.26a1.383,1.383,0,0,0,1.492.22,1.411,1.411,0,0,0,.817-1.29v-1.17H337v8.55a1.427,1.427,0,0,0,.48,1.06l8.343,7.36h-1.849A1.4,1.4,0,0,0,342.577,1867.66Z" transform="translate(-284 -1838)"/>
</svg>
