<svg id="logistics_confirm-receipt" xmlns="http://www.w3.org/2000/svg" width="60" height="65" viewBox="0 0 60 65">
  <defs>
    <style>
      .cls-1, .cls-2 {
        fill: #f05f22;
      }

      .cls-1 {
        fill-rule: evenodd;
      }
    </style>
  </defs>
  <path id="_1" data-name="1" class="cls-1" d="M701.2,1866.06l-8.579,8.53v-18.4a1.363,1.363,0,0,0-1.363-1.36h-7.751a9.545,9.545,0,0,0-7.257-5.28c0-.05.013-0.09,0.013-0.13a5.453,5.453,0,0,0-10.9,0c0,0.04.011,0.09,0.011,0.13a9.518,9.518,0,0,0-7.232,5.28h-7.773a1.362,1.362,0,0,0-1.363,1.36v51.46a1.36,1.36,0,0,0,1.363,1.35h40.894a1.361,1.361,0,0,0,1.363-1.35v-18.4l15.959-15.86a1.342,1.342,0,0,0,0-1.91l-5.452-5.42A1.368,1.368,0,0,0,701.2,1866.06Zm-10.907,21.67-10.5,10.44h-3.525v-3.51l15.957-15.85h0l5.85-5.81,3.525,3.5-11.3,11.23h0Zm-16.756-38.31h-5.452A2.726,2.726,0,0,1,673.536,1849.42Zm-6.57,2.7H674.9a6.815,6.815,0,0,1,6.431,4.59l0,0.01a6.543,6.543,0,0,1,.245.82H660.041a6.719,6.719,0,0,1,.246-0.82c0-.01,0-0.01,0-0.01a6.816,6.816,0,0,1,6.431-4.59h0.246Zm-15.24,54.17v-48.75h5.592a9.215,9.215,0,0,0-.139,1.36,1.36,1.36,0,0,0,1.363,1.35h24.591a1.361,1.361,0,0,0,1.363-1.35,1.279,1.279,0,0,0-.063-0.41,9.283,9.283,0,0,0-.136-0.95h5.6v19.75l-15.96,15.86a1.33,1.33,0,0,0-.4.95v5.42a1.354,1.354,0,0,0,1.363,1.35h5.453a1.383,1.383,0,0,0,.965-0.39l8.577-8.52v14.33H651.726ZM700,1871.08l2.162-2.14,3.525,3.5-2.162,2.15Z" transform="translate(-649 -1844)"/>
  <path id="_2" data-name="2" class="cls-1" d="M663.847,1875.79l-4.34-4.31a1.368,1.368,0,0,0-1.928,0,1.344,1.344,0,0,0,0,1.91l5.453,5.42a1.387,1.387,0,0,0,.962.4h0.1a1.391,1.391,0,0,0,.993-0.54l8.178-10.84a1.34,1.34,0,0,0-.272-1.89,1.367,1.367,0,0,0-1.909.27Z" transform="translate(-649 -1844)"/>
  <rect id="_3" data-name="3" class="cls-2" x="8" y="43" width="15" height="3" rx="1.5" ry="1.5"/>
</svg>
