<svg 
 xmlns="http://www.w3.org/2000/svg"
 xmlns:xlink="http://www.w3.org/1999/xlink"
 width="32px" height="32px">
<path fill-rule="evenodd"  fill="rgb(0, 0, 0)"
 d="M14.781,21.960 L8.092,16.495 C7.794,16.253 7.358,16.294 7.112,16.594 C6.870,16.891 6.913,17.329 7.211,17.572 C14.460,23.494 14.460,23.494 14.460,23.494 C14.585,23.596 14.742,23.651 14.901,23.651 C14.928,23.651 14.956,23.650 14.984,23.647 C15.172,23.623 15.343,23.526 15.457,23.375 C24.904,10.854 24.904,10.854 24.904,10.854 C25.135,10.547 25.074,10.111 24.766,9.880 C24.462,9.647 24.025,9.707 23.792,10.015 L14.781,21.960 Z"/>
<path fill-rule="evenodd"  fill="rgb(0, 0, 0)"
 d="M-0.000,15.999 C-0.000,24.821 7.178,31.999 16.000,31.999 C24.822,31.999 32.000,24.821 32.000,15.999 C32.000,7.176 24.822,-0.001 16.000,-0.001 C7.178,-0.001 -0.000,7.176 -0.000,15.999 ZM1.391,15.999 C1.391,7.943 7.944,1.390 16.000,1.390 C24.055,1.390 30.608,7.943 30.608,15.999 C30.608,24.055 24.055,30.608 16.000,30.608 C7.944,30.608 1.391,24.055 1.391,15.999 Z"/>
</svg>