<svg id="_5" data-name="5" xmlns="http://www.w3.org/2000/svg" width="32" height="32" viewBox="0 0 32 32"><defs><style>.cls-1{fill:#f06125;fill-rule:evenodd}</style></defs><path id="Заливка_цветом_1" data-name="Заливка цветом 1" class="cls-1" d="M872.781 5295.96l-6.689-5.47a.7.7 0 0 0-.881 1.08l7.249 5.92a.659.659 0 0 0 .441.16h.083a.728.728 0 0 0 .473-.27l9.447-12.53a.693.693 0 1 0-1.111-.83z" transform="translate(-858 -5274)"/><path id="Заливка_цветом_2" data-name="Заливка цветом 2" class="cls-1" d="M858 5290a16 16 0 1 0 16-16 16.02 16.02 0 0 0-16 16zm1.391 0A14.609 14.609 0 1 1 874 5304.61a14.623 14.623 0 0 1-14.609-14.61z" transform="translate(-858 -5274)"/></svg>