<?xml version="1.0" encoding="utf-8"?>
<!-- Generator: Adobe Illustrator 21.0.0, SVG Export Plug-In . SVG Version: 6.00 Build 0)  -->
<svg version="1.1" id="Слой_1" xmlns="http://www.w3.org/2000/svg" xmlns:xlink="http://www.w3.org/1999/xlink" x="0px" y="0px"
	 width="582.1400146px" height="134.9949951px" viewBox="0 0 582.1400146 134.9949951"
	 style="enable-background:new 0 0 582.1400146 134.9949951;" xml:space="preserve">
<style type="text/css">
	.st0{fill:#56351C;}
	.st1{fill:#FFFFFF;}
	.st2{enable-background:new    ;}
</style>
<g>
	<rect class="st0" width="582.1400146" height="134.9949951"/>
</g>
<path class="st1" d="M47.3979988,109.0960007c-5.2999992,5.4000015-14,5.4000015-19.3990002,0.0999985
	s-5.3999996-14-0.1000004-19.3990021l62.9980049-63.5979996l41.1990051,41.1989975V2.9000001H2.8v129.2960052h129.2960052
	v-25.9990005l-41.0990067-41.098999L47.3979988,109.0960007z"/>
<g class="st2">
	<path class="st1" d="M157.5654297,83.9072266h24.5654297c1.0131836,0,1.793457-0.1796875,2.3422852-0.5380859
		c0.5483398-0.3583984,0.9599609-0.7919922,1.2348633-1.2988281c0.2739258-0.5058594,0.4433594-1.0332031,0.5063477-1.5820313
		c0.0634766-0.5488281,0.0952148-1.0136719,0.0952148-1.3935547c0-0.4208984-0.0424805-0.8642578-0.1269531-1.3291016
		c-0.0849609-0.4638672-0.2749023-0.9179688-0.5698242-1.3613281c-0.2954102-0.4433594-0.7280273-0.8642578-1.2978516-1.2666016
		c-0.5698242-0.4003906-1.340332-0.7490234-2.3105469-1.0439453l-17.4746094-5.5087891
		c-0.1689453-0.0410156-0.4541016-0.1367188-0.8544922-0.2851563c-0.4018555-0.1474609-0.8549805-0.3574219-1.3613281-0.6328125
		c-0.5068359-0.2744141-1.034668-0.6015625-1.5830078-0.9814453c-0.5488281-0.3798828-1.034668-0.84375-1.4560547-1.3925781
		c-0.5063477-0.5908203-0.9082031-1.2441406-1.203125-1.9628906c-0.2958984-0.7167969-0.5283203-1.4453125-0.6962891-2.1845703
		c-0.1694336-0.7373047-0.2749023-1.4658203-0.3164063-2.1835938c-0.0429688-0.7177734-0.0634766-1.3935547-0.0634766-2.0263672
		c0-1.3505859,0.1582031-2.7636719,0.4746094-4.2421875c0.3168945-1.4765625,1.1083984-2.8066406,2.3745117-3.9882813
		c1.1396484-1.0976563,2.3632813-1.7832031,3.671875-2.0576172c1.3081055-0.2744141,2.5107422-0.4121094,3.6088867-0.4121094
		h25.5151367v6.6484375h-22.6660156c-0.5913086,0-1.1928711,0.0527344-1.8041992,0.1582031
		c-0.6123047,0.1054688-1.1713867,0.390625-1.6777344,0.8544922c-0.5493164,0.5068359-0.8764648,1.0976563-0.9814453,1.7724609
		c-0.105957,0.6757813-0.1582031,1.2246094-0.1582031,1.6464844c0,0.9716797,0.2421875,1.8994141,0.7280273,2.7861328
		c0.4848633,0.8857422,1.6142578,1.625,3.387207,2.2158203l16.2080078,5.1279297
		c1.4770508,0.4648438,2.7324219,0.9501953,3.7670898,1.4560547c1.0336914,0.5068359,1.8886719,1.0761719,2.5644531,1.7099609
		c0.6743164,0.6328125,1.2026367,1.3398438,1.5825195,2.1210938s0.6650391,1.5615234,0.8549805,2.3417969
		c0.1899414,0.7822266,0.3164063,1.53125,0.3798828,2.2480469c0.0629883,0.7177734,0.0947266,1.3300781,0.0947266,1.8359375
		c0,1.3925781-0.137207,2.8173828-0.4116211,4.2734375c-0.2749023,1.4560547-0.8764648,2.7763672-1.8041992,3.9570313
		c-1.0981445,1.4355469-2.3217773,2.3222656-3.6723633,2.6591797c-1.3510742,0.3388672-2.7646484,0.5068359-4.2416992,0.5068359
		h-27.2246094V83.9072266z"/>
	<path class="st1" d="M212.2050781,90.5546875V52.8837891h-17.284668v-6.6484375h42.9897461v6.6484375H220.5625v37.6708984
		H212.2050781z"/>
	<path class="st1" d="M266.875,45.7919922c1.5405273,0.0429688,3.1025391,0.2119141,4.6855469,0.5068359
		c1.5825195,0.2958984,3.1230469,0.7597656,4.621582,1.3925781c1.4975586,0.6337891,2.8588867,1.5419922,4.0834961,2.7226563
		c1.1396484,1.0986328,2.046875,2.3857422,2.7226563,3.8623047c0.6748047,1.4775391,1.1918945,3.0185547,1.5512695,4.6220703
		c0.3579102,1.6044922,0.5795898,3.2285156,0.6645508,4.875c0.0839844,1.6464844,0.1269531,3.1875,0.1269531,4.6220703
		c0,1.4775391-0.0537109,3.0283203-0.1586914,4.6533203c-0.1054688,1.625-0.3271484,3.2392578-0.6645508,4.84375
		c-0.3383789,1.6044922-0.8447266,3.1445313-1.5195313,4.6210938c-0.6757813,1.4785156-1.5830078,2.765625-2.7226563,3.8623047
		c-1.2246094,1.1826172-2.5859375,2.0898438-4.0834961,2.7226563c-1.4985352,0.6328125-3.0390625,1.0976563-4.621582,1.3925781
		c-1.5830078,0.2949219-3.1557617,0.4638672-4.7172852,0.5068359c-1.5620117,0.0410156-2.9755859,0.0634766-4.2416992,0.0634766
		c-1.3085938,0-2.7333984-0.0224609-4.2734375-0.0634766c-1.5415039-0.0429688-3.1025391-0.2119141-4.6855469-0.5068359
		c-1.5825195-0.2949219-3.1240234-0.7597656-4.621582-1.3925781c-1.4990234-0.6328125-2.8598633-1.5400391-4.0839844-2.7226563
		c-1.2661133-1.2236328-2.2475586-2.6162109-2.9438477-4.1787109c-0.6962891-1.5605469-1.203125-3.1542969-1.5195313-4.7802734
		c-0.3164063-1.6240234-0.5063477-3.2177734-0.5698242-4.7802734c-0.0634766-1.5605469-0.0947266-2.9755859-0.0947266-4.2412109
		c0-1.5195313,0.0415039-3.0917969,0.1264648-4.7167969c0.0839844-1.625,0.2949219-3.2294922,0.6333008-4.8125
		c0.3369141-1.5820313,0.84375-3.1015625,1.5195313-4.5585938c0.6743164-1.4560547,1.6240234-2.7539063,2.8486328-3.8935547
		c1.2241211-1.1806641,2.5849609-2.0888672,4.0839844-2.7226563c1.4975586-0.6328125,3.027832-1.0966797,4.590332-1.3925781
		c1.5610352-0.2949219,3.1118164-0.4638672,4.6533203-0.5068359c1.5400391-0.0410156,2.9853516-0.0625,4.3369141-0.0625
		C263.9091797,45.7294922,265.3339844,45.7509766,266.875,45.7919922z M248.6411133,73.1123047
		c0.1474609,1.3291016,0.3481445,2.4902344,0.6015625,3.4814453c0.2529297,0.9921875,0.5380859,1.8154297,0.8544922,2.4697266
		c0.3164063,0.6552734,0.6650391,1.2138672,1.0449219,1.6777344c0.6328125,0.8447266,1.3710938,1.5097656,2.2158203,1.9941406
		c0.84375,0.4863281,1.7509766,0.8544922,2.722168,1.1083984c0.9707031,0.2529297,2.0043945,0.4111328,3.1025391,0.4746094
		c1.097168,0.0634766,2.2158203,0.0947266,3.3554688,0.0947266s2.2475586-0.03125,3.3242188-0.0947266
		c1.0761719-0.0634766,2.1098633-0.2216797,3.1020508-0.4746094c0.9912109-0.2539063,1.9091797-0.6220703,2.7543945-1.1083984
		c0.84375-0.484375,1.6035156-1.1494141,2.2792969-1.9941406c0.3798828-0.4638672,0.7280273-1.0341797,1.0444336-1.7089844
		s0.6015625-1.4980469,0.8549805-2.4697266c0.2529297-0.9707031,0.4526367-2.1308594,0.6010742-3.4824219
		c0.1474609-1.3496094,0.2216797-2.9121094,0.2216797-4.6845703c0-1.8994141-0.0742188-3.5351563-0.2216797-4.9072266
		c-0.1484375-1.3710938-0.3481445-2.5419922-0.6010742-3.5136719c-0.253418-0.9707031-0.5493164-1.7724609-0.8867188-2.40625
		c-0.3383789-0.6328125-0.6757813-1.1601563-1.0126953-1.5820313c-1.309082-1.6044922-2.9760742-2.6064453-5.0019531-3.0078125
		c-2.0258789-0.4003906-4.1787109-0.6015625-6.4580078-0.6015625c-2.3217773,0-4.4741211,0.2011719-6.4580078,0.6015625
		c-1.984375,0.4013672-3.6303711,1.4033203-4.9379883,3.0078125c-0.8452148,1.0976563-1.5097656,2.5859375-1.9946289,4.4628906
		c-0.4858398,1.8789063-0.7280273,4.5273438-0.7280273,7.9462891
		C248.4194336,70.2109375,248.4926758,71.7822266,248.6411133,73.1123047z"/>
	<path class="st1" d="M291.6621094,53.7695313c0-0.9277344,0.0839844-1.9091797,0.2539063-2.9433594
		c0.1679688-1.0341797,0.6962891-1.9726563,1.5820313-2.8173828c0.8017578-0.7597656,1.6777344-1.2451172,2.6279297-1.4570313
		c0.9492188-0.2099609,1.8457031-0.3164063,2.6914063-0.3164063h21.0195313c0.7597656,0,1.5605469,0.0322266,2.40625,0.0957031
		c0.84375,0.0625,1.6875,0.2207031,2.53125,0.4746094c0.84375,0.2529297,1.65625,0.6542969,2.4375,1.203125
		s1.4882813,1.3085938,2.1210938,2.2792969c1.0546875,1.5195313,1.6875,3.1240234,1.9003906,4.8115234
		c0.2109375,1.6884766,0.3164063,3.3349609,0.3164063,4.9384766c0,1.6044922-0.0957031,3.2607422-0.2851563,4.9697266
		c-0.1894531,1.7099609-0.7285156,3.3876953-1.6152344,5.0332031c-0.2949219,0.5498047-0.6542969,1.0878906-1.0761719,1.6152344
		s-0.9589844,1.0126953-1.6132813,1.4560547c-0.65625,0.4423828-1.4472656,0.8017578-2.375,1.0761719
		s-2.0253906,0.4111328-3.2910156,0.4111328h-5.6992188v0.3164063l16.8417969,15.6386719h-10.5097656l-14.5625-14.3720703
		c-0.4648438-0.4638672-0.9296875-1.0449219-1.3925781-1.7412109c-0.4648438-0.6962891-0.6972656-1.3613281-0.6972656-1.9941406
		v-1.0126953c0-0.8867188,0.3164063-1.6152344,0.9492188-2.1845703c0.6347656-0.5703125,1.5625-0.8544922,2.7871094-0.8544922
		h8.3574219c0.7167969,0,1.5078125-0.1054688,2.3730469-0.3173828c0.8652344-0.2099609,1.59375-0.7587891,2.1855469-1.6455078
		c0.2109375-0.3378906,0.3886719-0.7802734,0.5371094-1.3300781c0.1484375-0.5478516,0.2539063-1.1074219,0.3164063-1.6777344
		c0.0644531-0.5693359,0.1054688-1.1289063,0.1269531-1.6777344c0.0214844-0.5478516,0.03125-1.0126953,0.03125-1.3925781
		c0-1.7724609-0.1484375-3.1230469-0.4433594-4.0517578s-0.6757813-1.625-1.1386719-2.0898438
		c-0.6757813-0.6748047-1.4570313-1.0654297-2.3417969-1.1708984c-0.8867188-0.1054688-1.6679688-0.1582031-2.34375-0.1582031
		h-13.5488281c-0.4648438,0-0.8652344,0.03125-1.203125,0.0947266s-0.6757813,0.2636719-1.0136719,0.6015625
		c-0.4648438,0.3798828-0.7265625,0.7705078-0.7910156,1.1708984c-0.0625,0.4023438-0.09375,0.8339844-0.09375,1.2978516v34.5058594
		h-8.3583984V53.7695313z"/>
	<path class="st1" d="M369.2832031,46.2353516h8.9912109l-18.7412109,30.7705078v13.5488281h-8.3574219V77.0058594
		l-18.7402344-30.7705078h8.9902344l13.9287109,23.2363281L369.2832031,46.2353516z"/>
	<path class="st1" d="M434.6845703,90.5546875h-8.3574219v-19.5H403.28125v19.5h-8.3574219V46.2353516h8.3574219V64.40625
		h23.0458984V46.2353516h8.3574219V90.5546875z"/>
	<path class="st1" d="M453.2978516,50.7304688c0.8007813-1.8564453,1.71875-3.1542969,2.7539063-3.8935547
		c1.0341797-0.7373047,2.5419922-1.1074219,4.5273438-1.1074219c1.8984375,0,3.3867188,0.3701172,4.4628906,1.1074219
		c1.0761719,0.7392578,2.015625,2.0371094,2.8173828,3.8935547l16.7148438,39.8242188h-8.8007813l-4.5585938-11.2060547h-21.3359375
		l-4.4951172,11.2060547h-8.8007813L453.2978516,50.7304688z M452.03125,73.3964844h17.03125l-7.2177734-18.0439453
		c-0.1269531-0.3369141-0.2958984-0.7275391-0.5058594-1.1708984c-0.2119141-0.4433594-0.4658203-0.6650391-0.7597656-0.6650391
		c-0.2958984,0-0.5498047,0.2216797-0.7597656,0.6650391c-0.2119141,0.4433594-0.3798828,0.8339844-0.5068359,1.1708984
		L452.03125,73.3964844z"/>
	<path class="st1" d="M507.7783203,84.3183594c0.7802734-0.0634766,1.5722656-0.1894531,2.3740234-0.3798828
		c0.8017578-0.1894531,1.5830078-0.4746094,2.3427734-0.8544922s1.4345703-0.8867188,2.0263672-1.5195313
		c0.5058594-0.5478516,0.8955078-1.1601563,1.1708984-1.8359375c0.2744141-0.6748047,0.484375-1.3505859,0.6328125-2.0263672
		c0.1474609-0.6748047,0.2314453-1.3505859,0.2539063-2.0263672c0.0205078-0.6738281,0.03125-1.2871094,0.03125-1.8359375
		V46.2353516h8.3574219v28.7441406c0,1.8994141-0.2216797,3.8310547-0.6650391,5.7929688
		c-0.4433594,1.9628906-1.5097656,3.8095703-3.1972656,5.5400391c-1.0976563,1.1396484-2.3320313,2.0263672-3.703125,2.6591797
		c-1.3720703,0.6337891-2.7548828,1.1083984-4.1474609,1.4248047s-2.7441406,0.5068359-4.0517578,0.5693359
		c-1.3085938,0.0634766-2.4697266,0.0957031-3.4824219,0.0957031s-2.1748047-0.0322266-3.4824219-0.0957031
		c-1.3085938-0.0625-2.6591797-0.2529297-4.0517578-0.5693359s-2.7763672-0.7910156-4.1474609-1.4248047
		c-1.3720703-0.6328125-2.6064453-1.5195313-3.703125-2.6591797c-1.6884766-1.7304688-2.7539063-3.5771484-3.1972656-5.5400391
		c-0.4433594-1.9619141-0.6650391-3.8935547-0.6650391-5.7929688V46.2353516h8.3574219v27.6044922
		c0,1.2246094,0.0947266,2.5332031,0.2851563,3.9257813c0.1894531,1.3925781,0.8115234,2.6591797,1.8671875,3.7988281
		c0.5908203,0.6328125,1.2558594,1.1396484,1.9941406,1.5195313s1.4980469,0.6650391,2.2792969,0.8544922
		c0.78125,0.1904297,1.5615234,0.3164063,2.3427734,0.3798828c0.7802734,0.0634766,1.4882813,0.0947266,2.1210938,0.0947266
		C506.3115234,84.4130859,506.9970703,84.3818359,507.7783203,84.3183594z"/>
	<path class="st1" d="M531.234375,83.9072266h24.5654297c1.0136719,0,1.7939453-0.1796875,2.3427734-0.5380859
		c0.5478516-0.3583984,0.9599609-0.7919922,1.234375-1.2988281c0.2744141-0.5058594,0.4433594-1.0332031,0.5068359-1.5820313
		s0.0947266-1.0136719,0.0947266-1.3935547c0-0.4208984-0.0419922-0.8642578-0.1259766-1.3291016
		c-0.0849609-0.4638672-0.2753906-0.9179688-0.5703125-1.3613281c-0.2958984-0.4433594-0.7275391-0.8642578-1.2978516-1.2666016
		c-0.5693359-0.4003906-1.3398438-0.7490234-2.3105469-1.0439453l-17.4746094-5.5087891
		c-0.1689453-0.0410156-0.4541016-0.1367188-0.8544922-0.2851563c-0.4013672-0.1474609-0.8544922-0.3574219-1.3613281-0.6328125
		c-0.5068359-0.2744141-1.0351563-0.6015625-1.5830078-0.9814453c-0.5488281-0.3798828-1.0351563-0.84375-1.4560547-1.3925781
		c-0.5068359-0.5908203-0.9082031-1.2441406-1.203125-1.9628906c-0.2958984-0.7167969-0.5283203-1.4453125-0.6962891-2.1845703
		c-0.1689453-0.7373047-0.2753906-1.4658203-0.3164063-2.1835938c-0.0429688-0.7177734-0.0634766-1.3935547-0.0634766-2.0263672
		c0-1.3505859,0.1582031-2.7636719,0.4746094-4.2421875c0.3164063-1.4765625,1.1083984-2.8066406,2.3740234-3.9882813
		c1.1396484-1.0976563,2.3642578-1.7832031,3.6728516-2.0576172c1.3076172-0.2744141,2.5107422-0.4121094,3.6083984-0.4121094
		h25.515625v6.6484375h-22.6660156c-0.5917969,0-1.1933594,0.0527344-1.8046875,0.1582031
		c-0.6123047,0.1054688-1.171875,0.390625-1.6777344,0.8544922c-0.5488281,0.5068359-0.8769531,1.0976563-0.9814453,1.7724609
		c-0.1054688,0.6757813-0.1582031,1.2246094-0.1582031,1.6464844c0,0.9716797,0.2421875,1.8994141,0.7275391,2.7861328
		c0.4853516,0.8857422,1.6152344,1.625,3.3876953,2.2158203l16.2080078,5.1279297
		c1.4765625,0.4648438,2.7324219,0.9501953,3.7675781,1.4560547c1.0332031,0.5068359,1.8876953,1.0761719,2.5634766,1.7099609
		c0.6748047,0.6328125,1.203125,1.3398438,1.5830078,2.1210938s0.6650391,1.5615234,0.8544922,2.3417969
		c0.1904297,0.7822266,0.3173828,1.53125,0.3798828,2.2480469c0.0634766,0.7177734,0.0957031,1.3300781,0.0957031,1.8359375
		c0,1.3925781-0.1376953,2.8173828-0.4121094,4.2734375s-0.8759766,2.7763672-1.8046875,3.9570313
		c-1.0976563,1.4355469-2.3212891,2.3222656-3.671875,2.6591797c-1.3515625,0.3388672-2.7646484,0.5068359-4.2421875,0.5068359
		H531.234375V83.9072266z"/>
</g>
</svg>
