<svg xmlns="http://www.w3.org/2000/svg" width="29.25" height="17.06" viewBox="0 0 29.25 17.06">
  <defs>
    <style>
      .cls-1 {
        fill: #fefefe;
        fill-rule: evenodd;
      }
    </style>
  </defs>
  <path id="_" data-name="" class="cls-1" d="M873.624,1039.81a1.02,1.02,0,0,0-.293-0.68l-1.465-1.46a0.906,0.906,0,0,0-1.347,0L859,1049.18l-11.516-11.51a1,1,0,0,0-.673-0.3,0.942,0.942,0,0,0-.674.3l-1.465,1.46a0.924,0.924,0,0,0,0,1.35l13.654,13.65a0.906,0.906,0,0,0,1.347,0l13.654-13.65A1.017,1.017,0,0,0,873.624,1039.81Z" transform="translate(-844.375 -1037.38)"/>
</svg>
