<?xml version="1.0" encoding="utf-8"?>
<!-- Generator: Adobe Illustrator 21.0.0, SVG Export Plug-In . SVG Version: 6.00 Build 0)  -->
<svg version="1.1" id="Слой_1" xmlns="http://www.w3.org/2000/svg" xmlns:xlink="http://www.w3.org/1999/xlink" x="0px" y="0px"
	 width="2739.2250977px" height="564.5679932px" viewBox="0 0 2739.2250977 564.5679932"
	 style="enable-background:new 0 0 2739.2250977 564.5679932;" xml:space="preserve">
<style type="text/css">
	.st0{fill:#FFFFFF;}
	.st1{enable-background:new    ;}
</style>
<path class="st0" d="M194.7369995,463.7019958c-23.1419983,23.57901-61.1309967,23.57901-84.7060013,0.4370117
	c-23.5739975-23.1419983-23.5790024-61.131012-0.4369965-84.7049866l275.07901-277.6990051l179.894989,179.8940125V0H0v564.5679932
	h564.5679932V451.0440063L385.1099854,271.5859985L194.7369995,463.7019958z"/>
<g class="st1">
	<path class="st0" d="M677.3267212,369.2715454h122.6650391c5.0585938,0,8.9560547-0.8945313,11.6972656-2.6875
		c2.7373047-1.7880859,4.7919922-3.9521484,6.1650391-6.4814453c1.3681641-2.5283203,2.2128906-5.1621094,2.5292969-7.9033203
		c0.3164063-2.7363281,0.4746094-5.0585938,0.4746094-6.9550781c0-2.1044922-0.2128906-4.3173828-0.6328125-6.6396484
		c-0.4248047-2.3164063-1.3730469-4.5839844-2.8457031-6.796875c-1.4765625-2.2128906-3.6347656-4.3173828-6.4804688-6.3232422
		c-2.8457031-2-6.6933594-3.7392578-11.5390625-5.2158203l-87.2568359-27.5048828
		c-0.8447266-0.2080078-2.2675781-0.6816406-4.2685547-1.4228516c-2.0048828-0.7363281-4.2675781-1.7880859-6.796875-3.1611328
		c-2.5292969-1.3691406-5.1669922-3.0039063-7.9033203-4.9003906c-2.7421875-1.8974609-5.1669922-4.2138672-7.2714844-6.9550781
		c-2.5292969-2.9492188-4.5351563-6.2148438-6.0068359-9.8007813c-1.4775391-3.5820313-2.6376953-7.2177734-3.4775391-10.9072266
		c-0.8447266-3.6855469-1.3740234-7.3212891-1.5810547-10.9072266c-0.2119141-3.5810547-0.3164063-6.9550781-0.3164063-10.1171875
		c0-6.7421875,0.7910156-13.8017578,2.3710938-21.1816406c1.5810547-7.375,5.5332031-14.0136719,11.8554688-19.9169922
		c5.6914063-5.4785156,11.8017578-8.9013672,18.3369141-10.2753906c6.5302734-1.3681641,12.5371094-2.0546875,18.0205078-2.0546875
		H852.472229v33.1953125H739.2915649c-2.9541016,0-5.9570313,0.2675781-9.0097656,0.7910156
		c-3.0585938,0.5283203-5.8486328,1.9511719-8.3779297,4.2675781c-2.7421875,2.5292969-4.3769531,5.4833984-4.9003906,8.8525391
		c-0.5292969,3.3740234-0.7910156,6.1152344-0.7910156,8.2197266c0,4.8505859,1.2109375,9.484375,3.6357422,13.9101563
		c2.4208984,4.4267578,8.0625,8.1162109,16.9140625,11.0654297l80.9335938,25.6083984
		c7.375,2.3212891,13.6435547,4.7421875,18.8105469,7.2705078c5.1621094,2.5292969,9.4306641,5.375,12.8046875,8.5361328
		c3.3691406,3.1621094,6.0068359,6.6933594,7.9033203,10.5908203c1.8974609,3.9033203,3.3193359,7.8007813,4.2685547,11.6982422
		c0.9482422,3.9023438,1.5800781,7.6416016,1.8964844,11.2226563c0.3164063,3.5869141,0.4746094,6.6396484,0.4746094,9.1689453
		c0,6.9550781-0.6875,14.0683594-2.0556641,21.3398438c-1.3730469,7.2714844-4.3759766,13.8613281-9.0097656,19.7587891
		c-5.4833984,7.1679688-11.59375,11.59375-18.3369141,13.2783203c-6.7480469,1.6894531-13.8066406,2.5292969-21.1816406,2.5292969
		H677.3267212V369.2715454z"/>
	<path class="st0" d="M950.1636353,402.4668579V214.3584595h-86.3076172V181.163147h214.6641235v33.1953125h-86.6240845v188.1083984
		H950.1636353z"/>
	<path class="st0" d="M1223.1568604,178.9502563c7.6914063,0.2128906,15.4912109,1.0576172,23.3955078,2.5292969
		c7.9033203,1.4765625,15.5947266,3.7939453,23.078125,6.9550781c7.4794922,3.1611328,14.2763672,7.6962891,20.3916016,13.5947266
		c5.6914063,5.4833984,10.2207031,11.9091797,13.5947266,19.2851563c3.3691406,7.3798828,5.9521484,15.0712891,7.7460938,23.078125
		c1.7880859,8.0126953,2.8945313,16.1240234,3.3193359,24.34375c0.4199219,8.2197266,0.6318359,15.9160156,0.6318359,23.0791016
		c0,7.3798828-0.2666016,15.125-0.7900391,23.2363281c-0.5283203,8.1162109-1.6347656,16.1777344-3.3193359,24.1855469
		c-1.6894531,8.0126953-4.21875,15.703125-7.5878906,23.0791016c-3.3740234,7.3798828-7.9033203,13.8066406-13.5947266,19.2841797
		c-6.1152344,5.9033203-12.9121094,10.4335938-20.3916016,13.5947266
		c-7.4833984,3.1611328-15.1748047,5.4833984-23.078125,6.9550781c-7.9042969,1.4726563-15.7578125,2.3173828-23.5537109,2.5292969
		c-7.7998047,0.2080078-14.8583984,0.3164063-21.1816406,0.3164063c-6.5351563,0-13.6484375-0.1083984-21.3398438-0.3164063
		c-7.6962891-0.2119141-15.4912109-1.0566406-23.3945313-2.5292969c-7.9042969-1.4716797-15.6005859-3.7939453-23.0791016-6.9550781
		c-7.4833984-3.1611328-14.28125-7.6914063-20.3916016-13.5947266
		c-6.3232422-6.1103516-11.2236328-13.0654297-14.7011719-20.8652344
		c-3.4775391-7.7949219-6.0068359-15.7529297-7.5869141-23.8691406c-1.5810547-8.1113281-2.5292969-16.0693359-2.8457031-23.8691406
		c-0.3164063-7.7949219-0.4746094-14.859375-0.4746094-21.1816406c0-7.5878906,0.2080078-15.4375,0.6328125-23.5537109
		c0.4199219-8.1113281,1.4716797-16.1230469,3.1611328-24.0273438c1.6845703-7.9033203,4.2138672-15.4912109,7.5878906-22.7626953
		c3.3691406-7.2705078,8.1113281-13.7519531,14.2265625-19.4423828
		c6.1103516-5.8984375,12.9082031-10.4335938,20.3916016-13.5947266c7.4785156-3.1611328,15.1210938-5.4785156,22.9208984-6.9550781
		c7.7949219-1.4716797,15.5400391-2.3164063,23.2363281-2.5292969c7.6914063-0.2070313,14.9082031-0.3164063,21.65625-0.3164063
		C1208.34729,178.6338501,1215.4605713,178.7432251,1223.1568604,178.9502563z M1132.1070557,315.3682251
		c0.7353516,6.6386719,1.7382813,12.4384766,3.0029297,17.3876953c1.2646484,4.9550781,2.6875,9.0644531,4.2675781,12.3300781
		c1.5810547,3.2705078,3.3203125,6.0615234,5.2167969,8.3779297c3.1611328,4.21875,6.8466797,7.5380859,11.0654297,9.9589844
		c4.2138672,2.4248047,8.7431641,4.2675781,13.59375,5.5322266c4.8466797,1.2646484,10.0087891,2.0546875,15.4912109,2.3710938
		c5.4785156,0.3164063,11.0654297,0.4746094,16.7558594,0.4746094c5.6914063,0,11.2236328-0.1582031,16.5986328-0.4746094
		c5.3740234-0.3164063,10.5361328-1.1064453,15.4912109-2.3710938c4.9492188-1.2646484,9.5332031-3.1074219,13.7519531-5.5322266
		c4.2138672-2.4208984,8.0078125-5.7402344,11.3818359-9.9589844c1.8964844-2.3164063,3.6357422-5.1621094,5.2158203-8.5361328
		c1.5810547-3.3691406,3.0039063-7.4785156,4.2685547-12.3300781c1.2646484-4.8457031,2.2617188-10.6396484,3.0029297-17.3876953
		c0.7363281-6.7431641,1.1064453-14.5429688,1.1064453-23.3945313c0-9.484375-0.3701172-17.6503906-1.1064453-24.5019531
		c-0.7412109-6.8466797-1.7382813-12.6953125-3.0029297-17.5458984c-1.2646484-4.8457031-2.7421875-8.8525391-4.4267578-12.0136719
		c-1.6894531-3.1621094-3.3740234-5.7949219-5.0576172-7.9042969c-6.5361328-8.0068359-14.859375-13.0107422-24.9765625-15.0166016
		c-10.1162109-2.0009766-20.8652344-3.0029297-32.2470703-3.0029297c-11.59375,0-22.3427734,1.0019531-32.2470703,3.0029297
		c-9.9091797,2.0058594-18.1289063,7.0097656-24.6591797,15.0166016c-4.21875,5.4833984-7.5380859,12.9130859-9.9589844,22.2890625
		c-2.4248047,9.3808594-3.6357422,22.6044922-3.6357422,39.6767578
		C1130.9996338,300.8799438,1131.3658447,308.7285767,1132.1070557,315.3682251z"/>
	<path class="st0" d="M1346.9273682,218.7852173c0-4.6337891,0.4199219-9.5341797,1.2646484-14.7011719
		c0.8398438-5.1621094,3.4775391-9.8496094,7.9033203-14.0683594c4.0019531-3.7939453,8.3779297-6.2148438,13.1201172-7.2714844
		c4.7431641-1.0527344,9.2177734-1.5810547,13.4365234-1.5810547h104.9609375c3.7939453,0,7.7949219,0.1582031,12.0136719,0.4746094
		c4.2138672,0.3164063,8.4277344,1.1064453,12.6464844,2.3710938c4.2138672,1.2646484,8.2685547,3.2695313,12.171875,6.0068359
		c3.8974609,2.7412109,7.4287109,6.5351563,10.5908203,11.3808594c5.265625,7.5878906,8.4267578,15.6005859,9.484375,24.0273438
		c1.0517578,8.4326172,1.5800781,16.6523438,1.5800781,24.6601563c0,8.0117188-0.4736328,16.28125-1.421875,24.8173828
		c-0.9492188,8.5361328-3.6357422,16.9140625-8.0625,25.1337891c-1.4765625,2.7412109-3.2695313,5.4287109-5.3740234,8.0615234
		c-2.109375,2.6376953-4.796875,5.0585938-8.0615234,7.2714844c-3.2705078,2.2128906-7.2226563,4.0058594-11.8554688,5.3740234
		c-4.6386719,1.3740234-10.1171875,2.0556641-16.4404297,2.0556641h-28.453125v1.5800781l84.0957031,78.0888672h-52.4804688
		l-72.7138672-71.765625c-2.3222656-2.3164063-4.6386719-5.2167969-6.9560547-8.6943359
		c-2.3212891-3.4775391-3.4775391-6.796875-3.4775391-9.9580078v-5.0585938c0-4.4257813,1.5810547-8.0615234,4.7421875-10.9072266
		c3.1621094-2.8457031,7.7949219-4.2675781,13.9111328-4.2675781h41.7314453c3.5810547,0,7.5332031-0.5244141,11.8554688-1.5810547
		c4.3173828-1.0527344,7.953125-3.7939453,10.9072266-8.2197266c1.0517578-1.6845703,1.9462891-3.8974609,2.6865234-6.6396484
		c0.7363281-2.7363281,1.2646484-5.5322266,1.5810547-8.3779297c0.3164063-2.8447266,0.5234375-5.6357422,0.6328125-8.3779297
		c0.1035156-2.7363281,0.1572266-5.0576172,0.1572266-6.9550781c0-8.8515625-0.7402344-15.5947266-2.2128906-20.2333984
		c-1.4765625-4.6337891-3.3740234-8.1113281-5.6904297-10.4326172c-3.3740234-3.3691406-7.2714844-5.3203125-11.6972656-5.8486328
		c-4.4257813-0.5234375-8.3291016-0.7910156-11.6972656-0.7910156h-67.65625c-2.3212891,0-4.3222656,0.1582031-6.0068359,0.4746094
		c-1.6894531,0.3164063-3.3740234,1.3193359-5.0576172,3.0029297c-2.3222656,1.8974609-3.6357422,3.8486328-3.9521484,5.8496094
		c-0.3164063,2.0048828-0.4746094,4.1640625-0.4746094,6.4804688v172.3007813h-41.7314453V218.7852173z"/>
	<path class="st0" d="M1734.5230713,181.163147h44.8925781l-93.5791016,153.6484375v67.6552734h-41.7314453v-67.6552734
		l-93.5800781-153.6484375h44.8925781l69.5527344,116.0263672L1734.5230713,181.163147z"/>
	<path class="st0" d="M2061.0952148,402.4668579h-41.7313232v-97.3740234h-115.078125v97.3740234h-41.7314453V181.163147h41.7314453
		v90.734375h115.078125v-90.734375h41.7313232V402.4668579z"/>
	<path class="st0" d="M2154.0375977,203.609436c4.0009766-9.2714844,8.5859375-15.7529297,13.7529297-19.4423828
		c5.1621094-3.6855469,12.6953125-5.5332031,22.6044922-5.5332031c9.484375,0,16.9140625,1.8476563,22.2880859,5.5332031
		c5.375,3.6894531,10.0625,10.1708984,14.0683594,19.4423828l83.4628906,198.8574219h-43.9443359l-22.7626953-55.9580078
		H2136.965332l-22.4462891,55.9580078h-43.9443359L2154.0375977,203.609436z M2147.7143555,316.7910767h85.0439453
		l-36.0410156-90.1025391c-0.6318359-1.6845703-1.4765625-3.6357422-2.5292969-5.8486328
		c-1.0566406-2.2128906-2.3212891-3.3193359-3.7929688-3.3193359c-1.4775391,0-2.7421875,1.1064453-3.7939453,3.3193359
		c-1.0576172,2.2128906-1.8974609,4.1640625-2.5292969,5.8486328L2147.7143555,316.7910767z"/>
	<path class="st0" d="M2426.0825195,371.3262329c3.8974609-0.3164063,7.8496094-0.9482422,11.8554688-1.8964844
		c4.0009766-0.9492188,7.9042969-2.3710938,11.6972656-4.2685547c3.7939453-1.8964844,7.1630859-4.4257813,10.1171875-7.5869141
		c2.5292969-2.7373047,4.4755859-5.7949219,5.8486328-9.1689453c1.3681641-3.3691406,2.4208984-6.7421875,3.1611328-10.1162109
		c0.7363281-3.3691406,1.15625-6.7431641,1.2646484-10.1171875c0.1044922-3.3691406,0.1582031-6.4267578,0.1582031-9.1679688
		V181.163147h41.7314453v143.53125c0,9.484375-1.1064453,19.1269531-3.3193359,28.9277344
		s-7.5380859,19.0234375-15.9658203,27.6630859c-5.4824219,5.6904297-11.6474609,10.1162109-18.4941406,13.2783203
		c-6.8515625,3.1611328-13.7529297,5.5322266-20.7080078,7.1132813c-6.9550781,1.5800781-13.703125,2.5292969-20.2333984,2.8447266
		c-6.5351563,0.3164063-12.3300781,0.4746094-17.3876953,0.4746094c-5.0585938,0-10.8583984-0.1582031-17.3886719-0.4746094
		c-6.5351563-0.3154297-13.2783203-1.2646484-20.2333984-2.8447266c-6.9550781-1.5810547-13.8613281-3.9521484-20.7070313-7.1132813
		c-6.8515625-3.1621094-13.0166016-7.5878906-18.4951172-13.2783203
		c-8.4326172-8.6396484-13.7529297-17.8623047-15.9658203-27.6630859s-3.3193359-19.4433594-3.3193359-28.9277344v-143.53125
		h41.7314453v137.8408203c0,6.1152344,0.4746094,12.6455078,1.4228516,19.6005859
		c0.9482422,6.9560547,4.0556641,13.2783203,9.3261719,18.9697266c2.9492188,3.1611328,6.2685547,5.6904297,9.9589844,7.5869141
		c3.6845703,1.8974609,7.4785156,3.3193359,11.3808594,4.2685547c3.8974609,0.9482422,7.7949219,1.5800781,11.6982422,1.8964844
		c3.8974609,0.3164063,7.4287109,0.4746094,10.5908203,0.4746094
		C2418.7573242,371.8008423,2422.1801758,371.6426392,2426.0825195,371.3262329z"/>
	<path class="st0" d="M2543.215332,369.2715454h122.6650391c5.0585938,0,8.9560547-0.8945313,11.6972656-2.6875
		c2.7373047-1.7880859,4.7919922-3.9521484,6.1650391-6.4814453c1.3681641-2.5283203,2.2128906-5.1621094,2.5292969-7.9033203
		c0.3164063-2.7363281,0.4746094-5.0585938,0.4746094-6.9550781c0-2.1044922-0.2128906-4.3173828-0.6328125-6.6396484
		c-0.4248047-2.3164063-1.3730469-4.5839844-2.8457031-6.796875c-1.4765625-2.2128906-3.6347656-4.3173828-6.4804688-6.3232422
		c-2.8457031-2-6.6933594-3.7392578-11.5390625-5.2158203l-87.2568359-27.5048828
		c-0.8447266-0.2080078-2.2675781-0.6816406-4.2685547-1.4228516c-2.0058594-0.7363281-4.2675781-1.7880859-6.796875-3.1611328
		c-2.5292969-1.3691406-5.1669922-3.0039063-7.9042969-4.9003906c-2.7412109-1.8974609-5.1669922-4.2138672-7.2705078-6.9550781
		c-2.5292969-2.9492188-4.5351563-6.2148438-6.0068359-9.8007813c-1.4775391-3.5820313-2.6386719-7.2177734-3.4785156-10.9072266
		c-0.8447266-3.6855469-1.3730469-7.3212891-1.5800781-10.9072266c-0.2128906-3.5810547-0.3164063-6.9550781-0.3164063-10.1171875
		c0-6.7421875,0.7900391-13.8017578,2.3710938-21.1816406c1.5810547-7.375,5.5322266-14.0136719,11.8554688-19.9169922
		c5.6904297-5.4785156,11.8017578-8.9013672,18.3369141-10.2753906c6.5302734-1.3681641,12.5371094-2.0546875,18.0205078-2.0546875
		h127.4072266v33.1953125h-113.1806641c-2.9541016,0-5.9580078,0.2675781-9.0107422,0.7910156
		c-3.0576172,0.5283203-5.8486328,1.9511719-8.3779297,4.2675781c-2.7412109,2.5292969-4.3759766,5.4833984-4.9003906,8.8525391
		c-0.5283203,3.3740234-0.7900391,6.1152344-0.7900391,8.2197266c0,4.8505859,1.2099609,9.484375,3.6357422,13.9101563
		c2.4208984,4.4267578,8.0615234,8.1162109,16.9140625,11.0654297l80.9335938,25.6083984
		c7.375,2.3212891,13.6435547,4.7421875,18.8105469,7.2705078c5.1621094,2.5292969,9.4306641,5.375,12.8046875,8.5361328
		c3.3691406,3.1621094,6.0068359,6.6933594,7.9033203,10.5908203c1.8974609,3.9033203,3.3193359,7.8007813,4.2685547,11.6982422
		c0.9482422,3.9023438,1.5800781,7.6416016,1.8964844,11.2226563c0.3164063,3.5869141,0.4746094,6.6396484,0.4746094,9.1689453
		c0,6.9550781-0.6875,14.0683594-2.0556641,21.3398438c-1.3730469,7.2714844-4.3759766,13.8613281-9.0097656,19.7587891
		c-5.4833984,7.1679688-11.59375,11.59375-18.3369141,13.2783203c-6.7480469,1.6894531-13.8066406,2.5292969-21.1816406,2.5292969
		H2543.215332V369.2715454z"/>
</g>
</svg>
