<svg xmlns="http://www.w3.org/2000/svg" width="103.969" height="104" viewBox="0 0 103.969 104">
  <defs>
    <style>
      .cls-1 {
        fill: #fff;
        fill-rule: evenodd;
      }
    </style>
  </defs>
  <path id="mail_send-arrow" class="cls-1" d="M965.834,662.489s0-.01,0-0.015,0-.009,0-0.014a2.229,2.229,0,0,0-.147-0.3,1.838,1.838,0,0,0-.137-0.127,2.037,2.037,0,0,0-.231-0.345,2.393,2.393,0,0,0-.426-0.284c-0.057-.033-0.085-0.1-0.142-0.132l0,0c-0.052-.028-0.1-0.038-0.156-0.061s-0.09-.038-0.137-0.052c-0.062-.024-0.123-0.057-0.189-0.076h0a2.5,2.5,0,0,0-.378-0.038,2.348,2.348,0,0,0-.312-0.028,2.231,2.231,0,0,0-.572.113,2.887,2.887,0,0,0-.284.076c-0.024.01-.047,0.01-0.066,0.019l0,0s-0.009,0-.009,0l-99.259,47.263-0.09.043a2.335,2.335,0,0,0-.775.643,2.376,2.376,0,0,0-.421.846,2.441,2.441,0,0,0-.08.615c0,0.076,0,.146.009,0.222v0.014h0V710.9a2.363,2.363,0,0,0,.26.841,2.387,2.387,0,0,0,.629.752,2.273,2.273,0,0,0,.846.425c0.042,0.015.09,0.024,0.127,0.034l41.057,9.123,9.128,41.075a2.379,2.379,0,0,0,2.042,1.839c0.085,0,.171.01,0.26,0.01a2.356,2.356,0,0,0,2.133-1.348L965.763,664.4a0.823,0.823,0,0,1,.048-0.1v0c0-.01,0-0.019.009-0.024s0.01-.038.019-0.057a2.672,2.672,0,0,0,.123-0.411v0c0.009-.047-0.019-0.1-0.014-0.146a2.4,2.4,0,0,0-.109-1.125C965.834,662.512,965.839,662.5,965.834,662.489ZM906.157,717.5l-34.575-7.682L952.258,671.4Zm3.342,3.347,46.1-46.105-38.419,80.68Z" transform="translate(-862 -661)"/>
</svg>
