<svg id="telegram" xmlns="http://www.w3.org/2000/svg" width="22" height="22" viewBox="0 0 22 22"><defs><style>.cls-1{fill:#08c}.cls-2{fill:#feffff;fill-rule:evenodd}</style></defs><circle id="elipse" class="cls-1" cx="11" cy="11" r="11"/><path id="_" data-name="" class="cls-2" d="M1169.62 411.668a.434.434 0 0 1-.72.34l-2-1.473-.96.928a.512.512 0 0 1-.4.2l.14-2.036 3.7-3.348c.16-.142-.03-.223-.25-.08l-4.58 2.884-1.97-.616c-.43-.134-.43-.429.09-.634l7.71-2.973c.36-.134.67.08.55.625zM1175 408a8 8 0 1 0-7.99 8 8 8 0 0 0 7.99-8z" transform="translate(-1156 -397)"/></svg>