<svg id="ui_confirm" xmlns="http://www.w3.org/2000/svg" width="104" height="104" viewBox="0 0 104 104">
  <defs>
    <style>
      .cls-1 {
        fill: #fff;
        fill-rule: evenodd;
      }
    </style>
  </defs>
  <path id="Заливка_цветом_1" data-name="Заливка цветом 1" class="cls-1" d="M910.039,732.371L888.3,714.609a2.263,2.263,0,0,0-2.862,3.5l23.558,19.245a2.293,2.293,0,0,0,1.434.51c0.09,0,.181,0,0.271-0.013a2.291,2.291,0,0,0,1.537-.882l30.7-40.7a2.263,2.263,0,0,0-3.613-2.726Z" transform="translate(-862 -661)"/>
  <path id="Заливка_цветом_2" data-name="Заливка цветом 2" class="cls-1" d="M862,713a52,52,0,1,0,52-52A52.06,52.06,0,0,0,862,713Zm4.522,0A47.478,47.478,0,1,1,914,760.478,47.53,47.53,0,0,1,866.522,713Z" transform="translate(-862 -661)"/>
</svg>
