<svg id="viber" xmlns="http://www.w3.org/2000/svg" width="21.25" height="22" viewBox="0 0 21.25 22"><defs><style>.cls-1{fill:#59267c}.cls-2{fill:#fff;fill-rule:evenodd}</style></defs><circle id="elipse" class="cls-1" cx="10.625" cy="11" r="10.625"/><path id="viber-2" data-name="viber" class="cls-2" d="M1201.9 404.4v-.019a5.474 5.474 0 0 0-3.67-3.575h-.02a20.165 20.165 0 0 0-7.68 0h-.02a5.474 5.474 0 0 0-3.67 3.575v.019a15.4 15.4 0 0 0 0 6.553v.019a5.523 5.523 0 0 0 3.47 3.523v1.738a.691.691 0 0 0 1.19.484l1.74-1.83c.38.021.75.033 1.13.033a20.225 20.225 0 0 0 3.84-.369h.02a5.476 5.476 0 0 0 3.67-3.575v-.02a15.4 15.4 0 0 0 0-6.556zm-1.37 6.238a4.157 4.157 0 0 1-2.59 2.512 18.84 18.84 0 0 1-4.09.334.09.09 0 0 0-.07.029c-.19.2-1.27 1.32-1.27 1.32l-1.35 1.4a.156.156 0 0 1-.27-.111v-2.879a.106.106 0 0 0-.08-.1 4.15 4.15 0 0 1-2.6-2.512 14.079 14.079 0 0 1 0-5.923 4.151 4.151 0 0 1 2.6-2.511 18.752 18.752 0 0 1 7.13 0 4.158 4.158 0 0 1 2.59 2.511 14.079 14.079 0 0 1 0 5.934zm-3.91 1.329a4.5 4.5 0 0 1-.45-.141 10.184 10.184 0 0 1-3.86-2.615 9.995 9.995 0 0 1-1.48-2.29c-.19-.39-.35-.8-.52-1.2a1.051 1.051 0 0 1 .31-1.024 2.315 2.315 0 0 1 .79-.606.507.507 0 0 1 .64.154 8.634 8.634 0 0 1 .99 1.4.671.671 0 0 1-.19.9c-.07.052-.14.112-.21.17a.7.7 0 0 0-.16.171.5.5 0 0 0-.03.413 3.717 3.717 0 0 0 2.07 2.32 1.051 1.051 0 0 0 .53.13 1.487 1.487 0 0 0 .66-.586.605.605 0 0 1 .74-.033c.24.153.47.318.71.484.22.164.45.323.66.509a.525.525 0 0 1 .15.657 2.191 2.191 0 0 1-.94 1.051 2.138 2.138 0 0 1-.41.131c-.16-.04.14-.034 0 .009zm-2.24-8.383a3.9 3.9 0 0 1 3.81 3.245c.05.326.07.658.1.989a.233.233 0 0 1-.21.273.247.247 0 0 1-.24-.267c-.02-.275-.03-.551-.07-.824a3.423 3.423 0 0 0-2.74-2.884c-.22-.039-.43-.049-.65-.072a.315.315 0 0 1-.35-.195.241.241 0 0 1 .23-.265h.12c1.9.058-.04.003 0 .004zm2.9 3.8c-.01.024-.01.081-.02.135a.217.217 0 0 1-.41.022.578.578 0 0 1-.02-.186 2.3 2.3 0 0 0-.3-1.175 2.2 2.2 0 0 0-.9-.859 2.618 2.618 0 0 0-.72-.224c-.11-.019-.22-.03-.33-.045a.217.217 0 0 1-.2-.236.211.211 0 0 1 .23-.2 2.958 2.958 0 0 1 1.25.33 2.561 2.561 0 0 1 1.38 1.988.5.5 0 0 0 .02.121c0 .1.01.2.02.334-.01.028-.01-.128 0 .004zm-1.19-.047a.232.232 0 0 1-.26-.234 1.619 1.619 0 0 0-.05-.309.891.891 0 0 0-.31-.5.872.872 0 0 0-.26-.127c-.12-.033-.24-.024-.36-.053a.225.225 0 0 1 .07-.443 1.313 1.313 0 0 1 1.34 1.323.593.593 0 0 1 0 .188.187.187 0 0 1-.17.157c-.16.01.07.003 0 .007z" transform="translate(-1183.75 -397)"/></svg>